<svg width="36" height="36" viewBox="0 0 36 36" fill="none" xmlns="http://www.w3.org/2000/svg">
<path d="M17.8627 4.05859C16.0252 4.05827 14.2536 4.74258 12.8935 5.97799C11.5334 7.2134 10.6824 8.91125 10.5066 10.7402C10.3308 12.5692 10.8427 14.3981 11.9426 15.87C13.0424 17.3419 14.6512 18.3512 16.455 18.7009V20.2462H16.1031C16.0098 20.2462 15.9203 20.2832 15.8543 20.3492C15.7883 20.4152 15.7512 20.5047 15.7512 20.5981V24.469C15.7512 24.5623 15.7883 24.6519 15.8543 24.7179C15.9203 24.7838 16.0098 24.8209 16.1031 24.8209H19.6222C19.7155 24.8209 19.805 24.7838 19.871 24.7179C19.937 24.6519 19.9741 24.5623 19.9741 24.469V20.5981C19.9741 20.5047 19.937 20.4152 19.871 20.3492C19.805 20.2832 19.7155 20.2462 19.6222 20.2462H19.2703V18.7009C21.0741 18.3512 22.6829 17.3419 23.7827 15.87C24.8826 14.3981 25.3945 12.5692 25.2187 10.7402C25.0429 8.91125 24.1919 7.2134 22.8318 5.97799C21.4717 4.74258 19.7001 4.05827 17.8627 4.05859ZM17.8627 16.8612C16.7921 16.8612 15.7457 16.5437 14.8555 15.949C13.9654 15.3542 13.2717 14.5089 12.862 13.5199C12.4524 12.5308 12.3452 11.4425 12.554 10.3926C12.7629 9.34264 13.2784 8.3782 14.0354 7.62123C14.7923 6.86426 15.7568 6.34876 16.8067 6.13991C17.8567 5.93107 18.945 6.03826 19.934 6.44793C20.923 6.85761 21.7684 7.55136 22.3631 8.44147C22.9578 9.33158 23.2753 10.3781 23.2753 11.4486C23.2753 12.1594 23.1353 12.8632 22.8633 13.5199C22.5913 14.1766 22.1926 14.7733 21.69 15.2759C21.1873 15.7785 20.5907 16.1772 19.934 16.4492C19.2773 16.7212 18.5734 16.8612 17.8627 16.8612Z" fill="#ED7864"/>
<path d="M9.75408 18.6112L10.9313 19.7884C10.9925 19.8496 11.0742 19.8861 11.1606 19.8908C11.2471 19.8956 11.3322 19.8684 11.3999 19.8144L13.1594 18.4068L12.7198 17.8573L11.2062 19.0681L10.0213 17.8832C9.95853 17.8206 9.8745 17.7839 9.78593 17.7805C9.69736 17.7771 9.61076 17.8072 9.5434 17.8648L7.08008 19.9763L7.53817 20.5106L9.75408 18.6112Z" fill="#ED7864"/>
<path d="M26.86 4.37067L24.5508 6.51904L25.0294 7.03528L27.3579 4.86896L28.3045 5.81523L28.7736 3L25.9584 3.46909L26.86 4.37067Z" fill="#ED7864"/>
<path d="M20.3258 7.92871H15.3991C15.2125 7.92871 15.0334 8.00286 14.9015 8.13485C14.7695 8.26684 14.6953 8.44586 14.6953 8.63252V9.33633C14.6953 9.52299 14.7695 9.702 14.9015 9.83399C15.0334 9.96598 15.2125 10.0401 15.3991 10.0401H20.3258C20.5124 10.0401 20.6915 9.96598 20.8234 9.83399C20.9554 9.702 21.0296 9.52299 21.0296 9.33633V8.63252C21.0296 8.44586 20.9554 8.26684 20.8234 8.13485C20.6915 8.00286 20.5124 7.92871 20.3258 7.92871ZM16.1029 9.24835H15.5751V8.72049H16.1029V9.24835ZM20.1498 9.24835H17.3346V8.72049H20.1498V9.24835Z" fill="#ED7864"/>
<path d="M20.3258 10.3955H15.3991C15.2125 10.3955 15.0334 10.4697 14.9015 10.6016C14.7695 10.7336 14.6953 10.9127 14.6953 11.0993V11.8031C14.6953 11.9898 14.7695 12.1688 14.9015 12.3008C15.0334 12.4328 15.2125 12.5069 15.3991 12.5069H20.3258C20.5124 12.5069 20.6915 12.4328 20.8234 12.3008C20.9554 12.1688 21.0296 11.9898 21.0296 11.8031V11.0993C21.0296 10.9127 20.9554 10.7336 20.8234 10.6016C20.6915 10.4697 20.5124 10.3955 20.3258 10.3955ZM16.1029 11.7151H15.5751V11.1873H16.1029V11.7151ZM20.1498 11.7151H17.3346V11.1873H20.1498V11.7151Z" fill="#ED7864"/>
<path d="M20.3258 12.8472H15.3991C15.2125 12.8472 15.0334 12.9213 14.9015 13.0533C14.7695 13.1853 14.6953 13.3643 14.6953 13.551V14.2548C14.6953 14.4414 14.7695 14.6205 14.9015 14.7525C15.0334 14.8844 15.2125 14.9586 15.3991 14.9586H20.3258C20.5124 14.9586 20.6915 14.8844 20.8234 14.7525C20.9554 14.6205 21.0296 14.4414 21.0296 14.2548V13.551C21.0296 13.3643 20.9554 13.1853 20.8234 13.0533C20.6915 12.9213 20.5124 12.8472 20.3258 12.8472ZM16.1029 14.1668H15.5751V13.639H16.1029V14.1668ZM20.1498 14.1668H17.3346V13.639H20.1498V14.1668Z" fill="#ED7864"/>
<path fill-rule="evenodd" clip-rule="evenodd" d="M33.0002 8.68961V28.3449C33.0002 28.6346 32.7726 28.8621 32.4829 28.8621H23.8346L24.6105 31.9656H25.2415C25.5312 31.9656 25.7588 32.1932 25.7588 32.4829C25.7588 32.7725 25.5312 33.0001 25.2415 33.0001H10.7587C10.469 33.0001 10.2414 32.7725 10.2414 32.4829C10.2414 32.1932 10.469 31.9656 10.7587 31.9656H11.3897L12.1656 28.8621H3.51724C3.22759 28.8621 3 28.6346 3 28.3449V8.68961C3 8.39995 3.22759 8.17236 3.51724 8.17236H7.6552C7.94486 8.17236 8.17245 8.39995 8.17245 8.68961C8.17245 8.97926 7.94486 9.20685 7.6552 9.20685H4.03449V27.8277H31.9657V9.20685H28.345C28.0553 9.20685 27.8277 8.97926 27.8277 8.68961C27.8277 8.39995 28.0553 8.17236 28.345 8.17236H32.4829C32.7726 8.17236 33.0002 8.39995 33.0002 8.68961Z" fill="#27A9E1"/>
</svg>
