<svg width="36" height="36" viewBox="0 0 36 36" fill="none" xmlns="http://www.w3.org/2000/svg">
<path fill-rule="evenodd" clip-rule="evenodd" d="M30.869 14.7C30.9103 14.431 30.931 14.1517 30.931 13.8621C30.931 11.4103 29.3793 9.32069 27.1965 8.51379C25.8931 5.28621 22.7276 3 19.0345 3C17.1724 3 15.4552 3.57931 14.0276 4.57241C12.869 3.58966 11.3586 3 9.72414 3C6.02069 3 3 6.02069 3 9.72414C3 11.6897 3.84828 13.4586 5.20345 14.6793C3.91034 15.2276 3 16.5 3 18C3 19.9966 4.62414 21.6207 6.62069 21.6207C6.91034 21.6207 7.13793 21.3931 7.13793 21.1034C7.13793 20.8138 6.91034 20.5862 6.62069 20.5862C5.1931 20.5862 4.03448 19.4276 4.03448 18C4.03448 16.8517 4.78965 15.8793 5.82414 15.5379C5.91724 15.5069 6 15.4448 6.06207 15.3621C7.11724 16.0448 8.37931 16.4483 9.72414 16.4483C13.4276 16.4483 16.4483 13.4276 16.4483 9.72414C16.4483 8.03793 15.8172 6.47586 14.7724 5.3069C15.9931 4.5 17.4621 4.03448 19.0345 4.03448C22.3759 4.03448 25.2207 6.14483 26.3172 9.10345C26.369 9.25862 26.4931 9.37241 26.6483 9.42414C28.531 10.0138 29.8965 11.7828 29.8965 13.8621C29.8965 14.2241 29.8552 14.5759 29.7724 14.9172C29.7207 15.1759 29.8655 15.4448 30.1345 15.5276C31.1897 15.8483 31.9655 16.831 31.9655 18C31.9655 19.4276 30.8069 20.5862 29.3793 20.5862C29.0897 20.5862 28.8621 20.8138 28.8621 21.1034C28.8621 21.3931 29.0897 21.6207 29.3793 21.6207C31.3759 21.6207 33 19.9966 33 18C33 16.531 32.1207 15.269 30.869 14.7ZM9.05172 9.05172C8.95862 9.15517 8.82414 9.2069 8.68965 9.2069C8.55517 9.2069 8.42069 9.15517 8.32759 9.05172L8.17241 8.89655V12.8276C8.17241 13.1172 7.94483 13.3448 7.65517 13.3448C7.36552 13.3448 7.13793 13.1172 7.13793 12.8276V8.89655L6.98276 9.05172C6.78621 9.25862 6.45517 9.25862 6.25862 9.05172C6.05172 8.85517 6.05172 8.52414 6.25862 8.32759L7.2931 7.2931C7.48965 7.08621 7.82069 7.08621 8.01724 7.2931L9.05172 8.32759C9.25862 8.52414 9.25862 8.85517 9.05172 9.05172ZM13.1897 12.1552L12.1552 13.1897C12.0621 13.2931 11.9276 13.3448 11.7931 13.3448C11.6586 13.3448 11.5241 13.2931 11.431 13.1897L10.3966 12.1552C10.1897 11.9586 10.1897 11.6276 10.3966 11.431C10.5931 11.2241 10.9241 11.2241 11.1207 11.431L11.2759 11.5862V7.65517C11.2759 7.36552 11.5034 7.13793 11.7931 7.13793C12.0828 7.13793 12.3103 7.36552 12.3103 7.65517V11.5862L12.4655 11.431C12.6621 11.2241 12.9931 11.2241 13.1897 11.431C13.3966 11.6276 13.3966 11.9586 13.1897 12.1552Z" fill="#ED7864"/>
<path fill-rule="evenodd" clip-rule="evenodd" d="M32.4828 30.9312H19.4586C19.3034 30.4864 18.9621 30.145 18.5172 29.9898V28.8622H27.3103C27.6 28.8622 27.8276 28.6346 27.8276 28.345V24.207C27.8276 23.9174 27.6 23.6898 27.3103 23.6898H18.5172V22.6553H27.3103C27.6 22.6553 27.8276 22.4277 27.8276 22.1381V18.0002C27.8276 17.7105 27.6 17.4829 27.3103 17.4829H8.68965C8.4 17.4829 8.17241 17.7105 8.17241 18.0002V22.1381C8.17241 22.4277 8.4 22.6553 8.68965 22.6553H17.4828V23.6898H8.68965C8.4 23.6898 8.17241 23.9174 8.17241 24.207V28.345C8.17241 28.6346 8.4 28.8622 8.68965 28.8622H17.4828V29.9898C17.0379 30.145 16.6965 30.4864 16.5414 30.9312H3.51724C3.22759 30.9312 3 31.1588 3 31.4484C3 31.7381 3.22759 31.9657 3.51724 31.9657H16.5414C16.7483 32.5657 17.3276 33.0002 18 33.0002C18.6724 33.0002 19.2517 32.5657 19.4586 31.9657H32.4828C32.7724 31.9657 33 31.7381 33 31.4484C33 31.1588 32.7724 30.9312 32.4828 30.9312ZM21.1034 25.7588H25.2414C25.531 25.7588 25.7586 25.9864 25.7586 26.276C25.7586 26.5657 25.531 26.7933 25.2414 26.7933H21.1034C20.8138 26.7933 20.5862 26.5657 20.5862 26.276C20.5862 25.9864 20.8138 25.7588 21.1034 25.7588ZM21.1034 19.5519H25.2414C25.531 19.5519 25.7586 19.7795 25.7586 20.0691C25.7586 20.3588 25.531 20.5864 25.2414 20.5864H21.1034C20.8138 20.5864 20.5862 20.3588 20.5862 20.0691C20.5862 19.7795 20.8138 19.5519 21.1034 19.5519ZM10.7586 20.5864C10.469 20.5864 10.2414 20.3588 10.2414 20.0691C10.2414 19.7795 10.469 19.5519 10.7586 19.5519C11.0483 19.5519 11.2759 19.7795 11.2759 20.0691C11.2759 20.3588 11.0483 20.5864 10.7586 20.5864ZM12.8276 20.5864C12.5379 20.5864 12.3103 20.3588 12.3103 20.0691C12.3103 19.7795 12.5379 19.5519 12.8276 19.5519C13.1172 19.5519 13.3448 19.7795 13.3448 20.0691C13.3448 20.3588 13.1172 20.5864 12.8276 20.5864ZM14.8966 20.5864C14.6069 20.5864 14.3793 20.3588 14.3793 20.0691C14.3793 19.7795 14.6069 19.5519 14.8966 19.5519C15.1862 19.5519 15.4138 19.7795 15.4138 20.0691C15.4138 20.3588 15.1862 20.5864 14.8966 20.5864ZM10.7586 26.7933C10.469 26.7933 10.2414 26.5657 10.2414 26.276C10.2414 25.9864 10.469 25.7588 10.7586 25.7588C11.0483 25.7588 11.2759 25.9864 11.2759 26.276C11.2759 26.5657 11.0483 26.7933 10.7586 26.7933ZM12.8276 26.7933C12.5379 26.7933 12.3103 26.5657 12.3103 26.276C12.3103 25.9864 12.5379 25.7588 12.8276 25.7588C13.1172 25.7588 13.3448 25.9864 13.3448 26.276C13.3448 26.5657 13.1172 26.7933 12.8276 26.7933ZM14.8966 26.7933C14.6069 26.7933 14.3793 26.5657 14.3793 26.276C14.3793 25.9864 14.6069 25.7588 14.8966 25.7588C15.1862 25.7588 15.4138 25.9864 15.4138 26.276C15.4138 26.5657 15.1862 26.7933 14.8966 26.7933ZM18 31.9657C17.7103 31.9657 17.4828 31.7381 17.4828 31.4484C17.4828 31.1588 17.7103 30.9312 18 30.9312C18.2897 30.9312 18.5172 31.1588 18.5172 31.4484C18.5172 31.7381 18.2897 31.9657 18 31.9657Z" fill="#27A9E1"/>
</svg>
