<svg width="36" height="36" viewBox="0 0 36 36" fill="none" xmlns="http://www.w3.org/2000/svg">
<path d="M24.9328 14.699V15.7626H12.6754L9.35184 4.06355H7.0918V3H10.0963L13.4199 14.699H24.9328Z" fill="#ED7864"/>
<path d="M15.0958 20.3353C13.9259 20.3353 12.9688 19.3781 12.9688 18.2082C12.9688 17.0382 13.9259 16.0811 15.0958 16.0811C16.2658 16.0811 17.2229 17.0382 17.2229 18.2082C17.2229 19.4046 16.2923 20.3353 15.0958 20.3353ZM15.0958 17.1712C14.5109 17.1712 14.0589 17.6498 14.0589 18.2082C14.0589 18.7931 14.5375 19.2451 15.0958 19.2451C15.6542 19.2451 16.1328 18.7665 16.1328 18.2082C16.1594 17.6498 15.6808 17.1712 15.0958 17.1712Z" fill="#ED7864"/>
<path d="M22.4591 20.3353C21.2892 20.3353 20.332 19.3781 20.332 18.2082C20.332 17.0382 21.2892 16.0811 22.4591 16.0811C23.629 16.0811 24.5862 17.0382 24.5862 18.2082C24.5862 19.4046 23.629 20.3353 22.4591 20.3353ZM22.4591 17.1712C21.8742 17.1712 21.4222 17.6498 21.4222 18.2082C21.4222 18.7931 21.9008 19.2451 22.4591 19.2451C23.0175 19.2451 23.4961 18.7665 23.4961 18.2082C23.5227 17.6498 23.0441 17.1712 22.4591 17.1712Z" fill="#ED7864"/>
<path d="M20.1218 17.8101H17.4629V18.4482H20.1218V17.8101Z" fill="#ED7864"/>
<path d="M19.2953 5.63232H18.3115H11.3984L13.7117 14.2205H23.8686L26.1818 5.63232H19.2953Z" fill="#ED7864"/>
<path fill-rule="evenodd" clip-rule="evenodd" d="M33.0002 8.68961V28.3449C33.0002 28.6346 32.7726 28.8621 32.4829 28.8621H23.8346L24.6105 31.9656H25.2415C25.5312 31.9656 25.7588 32.1932 25.7588 32.4829C25.7588 32.7725 25.5312 33.0001 25.2415 33.0001H10.7587C10.469 33.0001 10.2414 32.7725 10.2414 32.4829C10.2414 32.1932 10.469 31.9656 10.7587 31.9656H11.3897L12.1656 28.8621H3.51724C3.22759 28.8621 3 28.6346 3 28.3449V8.68961C3 8.39995 3.22759 8.17236 3.51724 8.17236H7.6552C7.94486 8.17236 8.17245 8.39995 8.17245 8.68961C8.17245 8.97926 7.94486 9.20685 7.6552 9.20685H4.03449V27.8277H31.9657V9.20685H28.345C28.0553 9.20685 27.8277 8.97926 27.8277 8.68961C27.8277 8.39995 28.0553 8.17236 28.345 8.17236H32.4829C32.7726 8.17236 33.0002 8.39995 33.0002 8.68961Z" fill="#27A9E1"/>
</svg>
