<svg width="36" height="36" viewBox="0 0 36 36" fill="none" xmlns="http://www.w3.org/2000/svg">
<path fill-rule="evenodd" clip-rule="evenodd" d="M18.2997 25.2009C22.1411 25.0438 25.2072 21.8801 25.2072 18C25.2072 14.1199 22.1411 10.9562 18.2997 10.7991C18.1323 10.7921 18 10.6545 18 10.4867V3.31232C18 3.14025 18.1402 3 18.3127 3H19.5003C20.0443 3 20.4856 3.44096 20.4856 3.98537C20.4856 6.93948 24.0644 8.42151 26.1528 6.33274C26.5374 5.94815 27.1617 5.94815 27.5463 6.33274L29.6676 8.454C30.0522 8.8386 30.0522 9.46291 29.6676 9.84751C27.5788 11.9363 29.0612 15.5147 32.015 15.5147C32.5594 15.5147 33.0003 15.956 33.0003 16.5001V19.4999C33.0003 20.044 32.5594 20.4853 32.015 20.4853C29.0608 20.4853 27.5788 24.0641 29.6676 26.1525C30.0522 26.5371 30.0522 27.1614 29.6676 27.546L27.5463 29.6673C27.1617 30.0519 26.5374 30.0519 26.1528 29.6673C24.0617 27.5758 20.4856 29.0572 20.4856 32.0146C20.4856 32.559 20.0443 33 19.5003 33H18.3127C18.1402 33 18 32.8598 18 32.6877V25.5133C18 25.3455 18.1323 25.2079 18.2997 25.2009ZM8.57038 31.0502L11.2231 28.7724C11.3024 28.7048 11.4025 28.6663 11.5069 28.6663H17.1254V29.5413H11.6671L9.13899 31.7123C9.16253 31.7981 9.17479 31.8883 9.17479 31.9811C9.17479 32.5438 8.71858 33 8.15594 33C7.5933 33 7.13709 32.5438 7.13709 31.9811C7.13709 31.4185 7.5933 30.9623 8.15594 30.9623C8.30348 30.9623 8.44372 30.9935 8.57038 31.0502ZM8.15594 3C8.71858 3 9.17479 3.45621 9.17479 4.01885C9.17479 4.11202 9.16219 4.2022 9.13899 4.28774L11.6671 6.45873H17.125V7.3337H11.5066C11.4061 7.3337 11.3053 7.29822 11.2228 7.2276L8.57005 4.94985C8.44339 5.00621 8.30315 5.03771 8.15561 5.03771C7.59297 5.03771 7.13675 4.5815 7.13675 4.01885C7.13675 3.45621 7.59297 3 8.15594 3ZM14.7538 9.00736C14.1911 9.00736 13.7349 9.46357 13.7349 10.0262C13.7349 10.5889 14.1911 11.0451 14.7538 11.0451C14.9013 11.0451 15.0416 11.0136 15.1682 10.9572L17.821 13.235C17.9032 13.3052 18.0043 13.3411 18.1048 13.3411H22.2889C21.9236 13.0045 21.5187 12.7101 21.0814 12.4661H18.2652L15.7372 10.2951C15.7607 10.2096 15.773 10.119 15.773 10.0262C15.7726 9.46357 15.3164 9.00736 14.7538 9.00736ZM18 16.9811C17.4374 16.9811 16.9811 17.4374 16.9811 18C16.9811 18.5626 17.4374 19.0189 18 19.0189C18.4061 19.0189 18.7569 18.7811 18.9204 18.4373H24.3167C24.3366 18.1449 24.3366 17.8545 24.3167 17.5624H18.9204C18.7569 17.2185 18.4061 16.9811 18 16.9811ZM14.7538 26.9926C15.3164 26.9926 15.7726 26.5364 15.7726 25.9738C15.7726 25.8806 15.76 25.7904 15.7368 25.7049L18.2649 23.5339H21.0811C21.5184 23.2899 21.9236 22.9955 22.2886 22.6589H18.1044C18.004 22.6589 17.9032 22.6944 17.8206 22.765L15.1679 25.0428C15.0412 24.9864 14.901 24.9549 14.7535 24.9549C14.1908 24.9549 13.7346 25.4111 13.7346 25.9738C13.7346 26.5364 14.1908 26.9926 14.7538 26.9926Z" fill="#27A9E1"/>
<path fill-rule="evenodd" clip-rule="evenodd" d="M5.30693 21.5784H11.005C11.4738 21.5784 11.8574 21.962 11.8574 22.4308V24.2706C11.8574 24.7394 11.4738 25.123 11.005 25.123H10.1287V25.9778C10.1287 26.4201 9.76694 26.7818 9.32465 26.7818H6.98722C6.54494 26.7818 6.18321 26.4201 6.18321 25.9778V25.123H5.30693C4.83811 25.123 4.45451 24.7394 4.45451 24.2706V22.4308C4.45451 21.962 4.83811 21.5784 5.30693 21.5784ZM8.15594 9.21856C11.0036 9.21856 13.3119 11.5268 13.3119 14.3745C13.3119 17.2215 11.5729 17.0856 11.0484 20.7041C11.0338 20.7038 11.0195 20.7035 11.005 20.7035H9.83126V18.2616L10.4377 15.3171C10.8839 15.2087 11.2155 14.8065 11.2155 14.3271C11.2155 13.7644 10.7593 13.3082 10.1966 13.3082C9.63399 13.3082 9.17778 13.7644 9.17778 14.3271C9.17778 14.6596 9.33725 14.955 9.58393 15.141L8.97421 18.1005C8.9626 18.1399 8.9563 18.1814 8.9563 18.2245V20.7038H7.35558V18.2245C7.35558 18.1814 7.34928 18.1399 7.33767 18.1005L6.72795 15.141C6.97463 14.955 7.1341 14.6596 7.1341 14.3271C7.1341 13.7644 6.67789 13.3082 6.11525 13.3082C5.55261 13.3082 5.09639 13.7644 5.09639 14.3271C5.09639 14.8068 5.42794 15.209 5.87421 15.3171L6.48061 18.2616V20.7035H5.30693C5.29234 20.7035 5.27775 20.7038 5.26316 20.7041C4.73865 17.0859 3 17.2215 3 14.3745C3 11.5268 5.30825 9.21856 8.15594 9.21856Z" fill="#ED7864"/>
</svg>
