<svg width="36" height="36" viewBox="0 0 36 36" fill="none" xmlns="http://www.w3.org/2000/svg">
<path d="M14.0099 17.4986C13.6889 17.7554 11.1855 20.2588 10.672 20.6439C10.2227 20.9969 9.70919 21.0932 9.22777 20.8044C8.71426 20.5476 8.4254 20.0662 8.4575 19.4885C8.48959 19.0713 8.68216 18.6861 9.00311 18.4294C9.70919 17.8196 11.4102 16.1827 12.1163 15.5729C12.1484 15.5408 12.2126 15.4767 12.2768 15.4446C12.1805 15.3804 12.0842 15.3162 11.9879 15.2841C11.0893 14.8348 10.1585 14.3854 9.25986 13.9361C8.90682 13.7756 8.81054 13.4868 8.93892 13.1338C9.0673 12.8128 9.29196 12.6523 9.61291 12.556C10.9288 12.203 12.2447 11.8179 13.5926 11.4648C15.6146 10.8871 17.6687 10.3415 19.6906 9.76381C19.9795 9.69962 20.2362 9.63543 20.5251 9.73172C20.9744 9.89219 21.1991 10.3094 21.0065 10.855C20.8781 11.2402 20.6856 11.6253 20.493 12.0104C19.145 14.8669 17.797 17.7233 16.4491 20.5797C16.2886 20.9007 16.096 21.1253 15.743 21.1895C15.3579 21.2858 15.069 21.1253 14.9727 20.7402C14.6839 19.7773 14.4271 18.8145 14.1383 17.8517C14.1062 17.7554 14.0741 17.627 14.0099 17.4986Z" fill="#ED7864"/>
<path d="M21.2326 14.3857C21.5535 14.3857 21.8424 14.5783 21.9387 14.8993C22.1633 15.6695 22.388 16.4398 22.5806 17.2101C22.7089 17.6594 22.4843 18.0124 22.035 18.1087C21.6498 18.205 21.2647 18.0124 21.1363 17.5952C20.9116 16.857 20.687 16.1189 20.4944 15.3486C20.3981 14.803 20.7512 14.3857 21.2326 14.3857Z" fill="#27A9E1"/>
<path d="M19.4325 5.91274C19.4325 6.39416 19.2078 6.68301 18.8869 6.7472C18.5338 6.84349 18.2129 6.71511 18.0524 6.36207C17.924 6.07321 17.8599 5.75227 17.7636 5.43132C17.6352 4.91781 17.4747 4.43639 17.3463 3.92287C17.2501 3.47355 17.4747 3.12051 17.8919 3.02422C18.2771 2.92794 18.6622 3.12051 18.7906 3.56983C18.9832 4.14753 19.1436 4.72524 19.3041 5.33504C19.3362 5.5597 19.4004 5.78436 19.4325 5.91274Z" fill="#27A9E1"/>
<path d="M23.3164 12.9092C23.3164 12.2994 23.9262 11.9464 24.4397 12.2352C25.1458 12.6203 25.8198 13.0055 26.4938 13.3906C26.8147 13.5511 26.911 13.8078 26.8468 14.1609C26.7826 14.4818 26.558 14.7386 26.237 14.7707C26.1086 14.7707 25.9161 14.7707 25.7877 14.7065C25.0816 14.3214 24.3755 13.9362 23.6694 13.519C23.4769 13.3906 23.3164 13.198 23.3164 12.9092Z" fill="#27A9E1"/>
<path d="M22.2901 7.19668C21.9371 7.19668 21.6161 7.00411 21.5198 6.68316C21.4878 6.49059 21.5198 6.26593 21.6161 6.10546C22.0013 5.39937 22.3864 4.69329 22.7715 4.0193C22.9962 3.66626 23.4134 3.56998 23.7665 3.76255C24.1195 3.95511 24.2479 4.37234 24.0553 4.75748C23.6702 5.46356 23.2851 6.20174 22.8678 6.90782C22.7715 7.10039 22.5469 7.19668 22.2901 7.19668Z" fill="#27A9E1"/>
<path d="M13.7859 6.3623C13.8822 6.3944 14.0106 6.42649 14.1069 6.49068C14.8129 6.87582 15.4869 7.26096 16.193 7.64609C16.5461 7.83866 16.6744 8.28799 16.4819 8.64103C16.2893 9.02616 15.8721 9.15454 15.4869 8.92988C14.7809 8.54474 14.0748 8.15961 13.3687 7.74238C13.0477 7.54981 12.9194 7.22886 13.0156 6.90791C13.144 6.58697 13.465 6.3623 13.7859 6.3623Z" fill="#27A9E1"/>
<path d="M23.7656 9.2506C23.7656 8.96174 23.9261 8.67289 24.247 8.6087C25.0173 8.38404 25.8197 8.12728 26.6221 7.93472C27.0393 7.83843 27.3923 8.06309 27.5207 8.48033C27.617 8.86546 27.4244 9.2506 27.0072 9.37898C26.2369 9.60364 25.4987 9.8283 24.7285 10.0209C24.1829 10.1492 23.7656 9.79621 23.7656 9.2506Z" fill="#27A9E1"/>
<path fill-rule="evenodd" clip-rule="evenodd" d="M33.0002 8.68961V28.3449C33.0002 28.6346 32.7726 28.8621 32.4829 28.8621H23.8346L24.6105 31.9656H25.2415C25.5312 31.9656 25.7588 32.1932 25.7588 32.4829C25.7588 32.7725 25.5312 33.0001 25.2415 33.0001H10.7587C10.469 33.0001 10.2414 32.7725 10.2414 32.4829C10.2414 32.1932 10.469 31.9656 10.7587 31.9656H11.3897L12.1656 28.8621H3.51724C3.22759 28.8621 3 28.6346 3 28.3449V8.68961C3 8.39995 3.22759 8.17236 3.51724 8.17236H7.6552C7.94486 8.17236 8.17245 8.39995 8.17245 8.68961C8.17245 8.97926 7.94486 9.20685 7.6552 9.20685H4.03449V27.8277H31.9657V9.20685H28.345C28.0553 9.20685 27.8277 8.97926 27.8277 8.68961C27.8277 8.39995 28.0553 8.17236 28.345 8.17236H32.4829C32.7726 8.17236 33.0002 8.39995 33.0002 8.68961Z" fill="#27A9E1"/>
</svg>
