<svg width="36" height="36" viewBox="0 0 36 36" fill="none" xmlns="http://www.w3.org/2000/svg">
<path d="M24.531 3H11.8303C10.6259 3 9.75 3.9854 9.75 5.18978V30.8102C9.75 32.0146 10.7354 33 11.9398 33H24.531C25.7354 33 26.7208 32.0146 26.7208 30.8102V5.18978C26.7208 3.9854 25.7354 3 24.531 3ZM15.115 4.31387H21.3558C21.4653 4.31387 21.6843 4.53285 21.6843 4.86131C21.6843 5.18978 21.5748 5.40876 21.3558 5.40876H15.115C15.0055 5.40876 14.7865 5.18978 14.7865 4.86131C14.7865 4.53285 14.896 4.31387 15.115 4.31387ZM18.1807 30.9197C17.4142 30.9197 16.7573 30.2628 16.7573 29.4964C16.7573 28.7299 17.4142 28.073 18.1807 28.073C18.9471 28.073 19.604 28.7299 19.604 29.4964C19.604 30.2628 18.9471 30.9197 18.1807 30.9197ZM25.6633 26.1022H10.8838V6.72263H25.6633V26.1022Z" fill="#27A9E1"/>
<path fill-rule="evenodd" clip-rule="evenodd" d="M23.16 12.5452H14.0691C13.9418 12.5452 13.8418 12.6452 13.8418 12.7724V17.7724C13.8418 17.8997 13.9418 17.9997 14.0691 17.9997H14.9191C14.9282 18.1588 14.9463 18.3133 14.9782 18.4679L14.5691 18.9497C14.5191 19.0133 14.5054 19.0952 14.5282 19.1724C14.71 19.7043 14.9918 20.1861 15.36 20.6088C15.4145 20.6724 15.4918 20.6997 15.5691 20.6861L16.1918 20.577C16.5463 20.8815 16.9554 21.1179 17.3963 21.2724L17.6145 21.8633C17.6418 21.9406 17.7054 21.9952 17.7827 22.0088C18.06 22.0633 18.3373 22.0906 18.6145 22.0906C18.8918 22.0906 19.1691 22.0633 19.4463 22.0088C19.5236 21.9952 19.5873 21.9406 19.6145 21.8633L19.8282 21.2724C20.2691 21.1179 20.6827 20.8815 21.0373 20.577L21.6554 20.6861C21.7373 20.6997 21.8145 20.6724 21.8691 20.6088C22.2373 20.1861 22.5191 19.7043 22.7009 19.1724C22.7236 19.0952 22.71 19.0133 22.66 18.9497L22.2509 18.4679C22.2827 18.3133 22.3009 18.1588 22.31 17.9997H23.16C23.2873 17.9997 23.3873 17.8997 23.3873 17.7724V12.7724C23.3873 12.6452 23.2873 12.5452 23.16 12.5452ZM20.26 13.8315C20.1782 13.7361 20.1873 13.5906 20.2827 13.5088C20.3782 13.427 20.5236 13.4406 20.6054 13.5315L21.9691 15.1224C22.0418 15.2088 22.0418 15.3361 21.9691 15.4224L20.6054 17.0133C20.56 17.0633 20.4963 17.0906 20.4327 17.0906C20.3782 17.0906 20.3282 17.0724 20.2827 17.0361C20.1873 16.9543 20.1782 16.8088 20.26 16.7133L21.4963 15.2724L20.26 13.8315ZM17.51 16.7497L19.3282 13.5679C19.3873 13.4588 19.5282 13.4224 19.6373 13.4861C19.7463 13.5452 19.7827 13.6861 19.7191 13.7952L17.9009 16.977C17.86 17.0497 17.7827 17.0906 17.7054 17.0906C17.6691 17.0906 17.6282 17.0815 17.5918 17.0588C17.4827 16.9997 17.4463 16.8588 17.51 16.7497ZM20.1873 17.9997C20.0782 18.7679 19.4145 19.3633 18.6145 19.3633C17.8145 19.3633 17.1509 18.7679 17.0418 17.9997H20.1873ZM15.26 15.1224L16.6236 13.5315C16.7054 13.4406 16.8509 13.427 16.9418 13.5088C17.0373 13.5906 17.0509 13.7361 16.9691 13.8315L15.7327 15.2724L16.9691 16.7133C17.0509 16.8088 17.0373 16.9543 16.9418 17.0361C16.9009 17.0724 16.8463 17.0906 16.7963 17.0906C16.7327 17.0906 16.6691 17.0633 16.6236 17.0133L15.26 15.4224C15.1873 15.3361 15.1873 15.2088 15.26 15.1224ZM21.61 20.2133L21.01 20.1088C20.9373 20.0952 20.8645 20.1179 20.8145 20.1633C20.4645 20.4861 20.0418 20.7315 19.5873 20.8724C19.5191 20.8952 19.4645 20.9452 19.4418 21.0133L19.2327 21.5861C18.8236 21.6543 18.4054 21.6543 17.9963 21.5861L17.7873 21.0133C17.7645 20.9452 17.71 20.8952 17.6418 20.8724C17.1873 20.7315 16.7645 20.4861 16.4145 20.1633C16.36 20.1179 16.2873 20.0952 16.2191 20.1088L15.6191 20.2133C15.3554 19.8906 15.1509 19.5315 15.0009 19.1452L15.3963 18.677C15.4418 18.6224 15.46 18.5497 15.4418 18.4815C15.4054 18.3224 15.3827 18.1633 15.3736 17.9997H16.5827C16.6963 19.0224 17.5645 19.8179 18.6145 19.8179C19.6645 19.8179 20.5327 19.0224 20.6463 17.9997H21.8554C21.8463 18.1633 21.8236 18.3224 21.7873 18.4815C21.7691 18.5497 21.7873 18.6224 21.8327 18.677L22.2282 19.1452C22.0782 19.5315 21.8736 19.8906 21.61 20.2133Z" fill="#ED7864"/>
</svg>
