<svg width="36" height="36" viewBox="0 0 36 36" fill="none" xmlns="http://www.w3.org/2000/svg">
<path d="M29.8966 15.931C29.8966 17.3586 28.738 18.5172 27.3104 18.5172C25.8828 18.5172 24.7242 17.3586 24.7242 15.931C24.7242 14.7207 25.5621 13.7069 26.6794 13.4172C26.0897 9.53793 23.1518 6.3 19.3242 5.35862C19.0552 5.80345 18.5587 6.10345 18.0001 6.10345C17.4414 6.10345 16.9449 5.80345 16.6759 5.35862C12.8483 6.3 9.91041 9.53793 9.32076 13.4172C10.438 13.7069 11.2759 14.7207 11.2759 15.931C11.2759 17.3586 10.1173 18.5172 8.68972 18.5172C7.26214 18.5172 6.10352 17.3586 6.10352 15.931C6.10352 14.6483 7.04489 13.5724 8.27593 13.3759C8.89662 9.02069 12.1759 5.38966 16.4587 4.34483C16.5621 3.58966 17.2139 3 18.0001 3C18.7863 3 19.438 3.58966 19.5414 4.34483C23.8139 5.38966 27.1035 9.02069 27.7242 13.3759C28.9552 13.5724 29.8966 14.6483 29.8966 15.931Z" fill="#ED7864"/>
<path fill-rule="evenodd" clip-rule="evenodd" d="M33 8.6896V28.3448C33 28.6344 32.7724 28.862 32.4828 28.862H23.8345L24.6103 31.9655H25.2414C25.531 31.9655 25.7586 32.1931 25.7586 32.4827C25.7586 32.7724 25.531 32.9999 25.2414 32.9999H10.7586C10.469 32.9999 10.2414 32.7724 10.2414 32.4827C10.2414 32.1931 10.469 31.9655 10.7586 31.9655H11.3897L12.1655 28.862H3.51724C3.22759 28.862 3 28.6344 3 28.3448V8.6896C3 8.39995 3.22759 8.17236 3.51724 8.17236H7.65517C7.94483 8.17236 8.17241 8.39995 8.17241 8.6896C8.17241 8.97926 7.94483 9.20685 7.65517 9.20685H4.03448V27.8275H31.9655V9.20685H28.3448C28.0552 9.20685 27.8276 8.97926 27.8276 8.6896C27.8276 8.39995 28.0552 8.17236 28.3448 8.17236H32.4828C32.7724 8.17236 33 8.39995 33 8.6896Z" fill="#27A9E1"/>
<path d="M23.6489 19.8727L18.4765 7.45894C18.3213 7.07619 17.6799 7.07619 17.5247 7.45894L12.3523 19.8727C12.2696 20.0589 12.3109 20.2865 12.4661 20.4314L14.7109 22.6865C14.5144 22.7589 14.3799 22.9555 14.3799 23.1727V24.7245H13.8627C13.573 24.7245 13.3454 24.952 13.3454 25.2417C13.3454 25.5314 13.573 25.7589 13.8627 25.7589H22.1385C22.4282 25.7589 22.6558 25.5314 22.6558 25.2417C22.6558 24.952 22.4282 24.7245 22.1385 24.7245H21.6213V23.1727C21.6213 22.9555 21.4765 22.7589 21.2799 22.6865L23.5351 20.4314C23.6903 20.2865 23.7316 20.0589 23.6489 19.8727ZM19.8523 22.6555H16.1489L13.4385 19.9452L17.4834 10.2417V19.0348C17.4834 19.3245 17.7109 19.552 18.0006 19.552C18.2903 19.552 18.5178 19.3245 18.5178 19.0348V10.2417L22.5627 19.9452L19.8523 22.6555Z" fill="#27A9E1"/>
</svg>
