<svg width="36" height="36" viewBox="0 0 36 36" fill="none" xmlns="http://www.w3.org/2000/svg">
<path fill-rule="evenodd" clip-rule="evenodd" d="M29.3794 25.7583H6.62076C6.3311 25.7583 6.10352 25.9859 6.10352 26.2755C6.10352 26.5652 6.3311 26.7928 6.62076 26.7928H29.3794C29.669 26.7928 29.8966 26.5652 29.8966 26.2755C29.8966 25.9859 29.669 25.7583 29.3794 25.7583Z" fill="#27A9E1"/>
<path fill-rule="evenodd" clip-rule="evenodd" d="M28.3456 3H7.65591C7.36626 3 7.13867 3.22759 7.13867 3.51724V14.8966C7.13867 15.1862 7.36626 15.4138 7.65591 15.4138H9.5904C9.61109 15.7759 9.65247 16.1276 9.72488 16.4793L8.79384 17.5759C8.68005 17.7207 8.64902 17.9069 8.70074 18.0828C9.11453 19.2931 9.75591 20.3897 10.5938 21.3517C10.718 21.4966 10.8938 21.5586 11.0697 21.5276L12.4869 21.2793C13.2938 21.9724 14.2249 22.5103 15.2283 22.8621L15.7249 24.2069C15.7869 24.3828 15.9318 24.5069 16.1076 24.5379C16.7387 24.6621 17.3697 24.7241 18.0007 24.7241C18.6318 24.7241 19.2628 24.6621 19.8938 24.5379C20.0697 24.5069 20.2145 24.3828 20.2766 24.2069L20.7628 22.8621C21.7663 22.5103 22.7076 21.9724 23.5145 21.2793L24.9214 21.5276C25.1076 21.5586 25.2835 21.4966 25.4076 21.3517C26.2456 20.3897 26.8869 19.2931 27.3007 18.0828C27.3525 17.9069 27.3214 17.7207 27.2076 17.5759L26.2766 16.4793C26.349 16.1276 26.3904 15.7759 26.4111 15.4138H28.3456C28.6352 15.4138 28.8628 15.1862 28.8628 14.8966V3.51724C28.8628 3.22759 28.6352 3 28.3456 3ZM21.7456 5.92759C21.5594 5.71034 21.5801 5.37931 21.7973 5.1931C22.0145 5.0069 22.3456 5.03793 22.5318 5.24483L25.6352 8.86552C25.8007 9.06207 25.8007 9.35172 25.6352 9.54828L22.5318 13.169C22.4283 13.2828 22.2835 13.3448 22.1387 13.3448C22.0145 13.3448 21.9007 13.3034 21.7973 13.2207C21.5801 13.0345 21.5594 12.7034 21.7456 12.4862L24.5594 9.2069L21.7456 5.92759ZM15.4869 12.569L19.6249 5.32759C19.7594 5.07931 20.0801 4.99655 20.3283 5.14138C20.5766 5.27586 20.6594 5.59655 20.5145 5.84483L16.3766 13.0862C16.2835 13.2517 16.1076 13.3448 15.9318 13.3448C15.849 13.3448 15.7559 13.3241 15.6732 13.2724C15.4249 13.1379 15.3421 12.8172 15.4869 12.569ZM21.5801 15.4138C21.3318 17.1621 19.8214 18.5172 18.0007 18.5172C16.1801 18.5172 14.6697 17.1621 14.4214 15.4138H21.5801ZM10.3663 8.86552L13.4697 5.24483C13.6559 5.03793 13.9869 5.0069 14.1938 5.1931C14.4111 5.37931 14.4421 5.71034 14.2559 5.92759L11.4421 9.2069L14.2559 12.4862C14.4421 12.7034 14.4111 13.0345 14.1938 13.2207C14.1007 13.3034 13.9766 13.3448 13.8628 13.3448C13.718 13.3448 13.5732 13.2828 13.4697 13.169L10.3663 9.54828C10.2007 9.35172 10.2007 9.06207 10.3663 8.86552ZM24.818 20.4517L23.4525 20.2138C23.2869 20.1828 23.1214 20.2345 23.0076 20.3379C22.2111 21.0724 21.249 21.631 20.2145 21.9517C20.0594 22.0034 19.9352 22.1172 19.8835 22.2724L19.4076 23.5759C18.4766 23.731 17.5249 23.731 16.5938 23.5759L16.118 22.2724C16.0663 22.1172 15.9421 22.0034 15.7869 21.9517C14.7525 21.631 13.7904 21.0724 12.9938 20.3379C12.8697 20.2345 12.7042 20.1828 12.549 20.2138L11.1835 20.4517C10.5835 19.7172 10.118 18.9 9.7766 18.0207L10.6766 16.9552C10.7801 16.831 10.8214 16.6655 10.7801 16.5103C10.6973 16.1483 10.6456 15.7862 10.6249 15.4138H13.3766C13.6352 17.7414 15.6111 19.5517 18.0007 19.5517C20.3904 19.5517 22.3663 17.7414 22.6249 15.4138H25.3766C25.3559 15.7862 25.3042 16.1483 25.2214 16.5103C25.1801 16.6655 25.2214 16.831 25.3249 16.9552L26.2249 18.0207C25.8835 18.9 25.418 19.7172 24.818 20.4517Z" fill="#ED7864"/>
<path fill-rule="evenodd" clip-rule="evenodd" d="M33 8.68985V28.345C33 28.6347 32.7724 28.8623 32.4828 28.8623H23.8345L24.6103 31.9657H25.2414C25.531 31.9657 25.7586 32.1933 25.7586 32.483C25.7586 32.7726 25.531 33.0002 25.2414 33.0002H10.7586C10.469 33.0002 10.2414 32.7726 10.2414 32.483C10.2414 32.1933 10.469 31.9657 10.7586 31.9657H11.3897L12.1655 28.8623H3.51724C3.22759 28.8623 3 28.6347 3 28.345V8.68985C3 8.40019 3.22759 8.17261 3.51724 8.17261H5.58621C5.87586 8.17261 6.10345 8.40019 6.10345 8.68985C6.10345 8.9795 5.87586 9.20709 5.58621 9.20709H4.03448V27.8278H31.9655V9.20709H30.4138C30.1241 9.20709 29.8966 8.9795 29.8966 8.68985C29.8966 8.40019 30.1241 8.17261 30.4138 8.17261H32.4828C32.7724 8.17261 33 8.40019 33 8.68985Z" fill="#27A9E1"/>
</svg>
