<svg width="190" height="190" viewBox="0 0 190 190" fill="none" xmlns="http://www.w3.org/2000/svg">
<g filter="url(#filter0_di_2572_9514)">
<circle cx="98.8582" cy="96.8582" r="76.8582" fill="white"/>
<circle cx="98.8582" cy="96.8582" r="83.8002" stroke="#F4F4F4" stroke-width="13.8841"/>
</g>
<path d="M70.0993 113.158C73.9921 113.158 77.1478 110.002 77.1478 106.109C77.1478 102.216 73.9921 99.0605 70.0993 99.0605C66.2065 99.0605 63.0508 102.216 63.0508 106.109C63.0508 110.002 66.2065 113.158 70.0993 113.158Z" fill="#27A9E1"/>
<path d="M84.194 126.348C84.194 130.726 84.194 134.277 70.097 134.277C56 134.277 56 130.726 56 126.348C56 121.969 62.3119 118.418 70.097 118.418C77.8821 118.418 84.194 121.969 84.194 126.348Z" fill="#27A9E1"/>
<path d="M99.6969 68.0267C103.57 68.0267 106.71 64.8867 106.71 61.0133C106.71 57.14 103.57 54 99.6969 54C95.8236 54 92.6836 57.14 92.6836 61.0133C92.6836 64.8867 95.8236 68.0267 99.6969 68.0267Z" fill="#27A9E1"/>
<path d="M113.721 81.1771C113.721 85.5342 113.721 89.0671 99.6947 89.0671C85.668 89.0671 85.668 85.5342 85.668 81.1771C85.668 76.8201 91.9484 73.2871 99.6947 73.2871C107.441 73.2871 113.721 76.8201 113.721 81.1771Z" fill="#27A9E1"/>
<path d="M128.141 112.679C132.12 112.679 135.345 109.453 135.345 105.475C135.345 101.497 132.12 98.2715 128.141 98.2715C124.163 98.2715 120.938 101.497 120.938 105.475C120.938 109.453 124.163 112.679 128.141 112.679Z" fill="#27A9E1"/>
<path d="M142.549 126.186C142.549 130.661 142.549 134.29 128.142 134.29C113.734 134.29 113.734 130.661 113.734 126.186C113.734 121.711 120.185 118.082 128.142 118.082C136.098 118.082 142.549 121.711 142.549 126.186Z" fill="#27A9E1"/>
<path d="M101.38 99.3913C101.38 98.4285 100.594 97.6582 99.6112 97.6582C98.6287 97.6582 97.8427 98.4285 97.8427 99.3913C97.8427 100.354 98.6287 101.124 99.6112 101.124C100.594 101.124 101.38 100.354 101.38 99.3913ZM101.38 104.398C101.38 103.435 100.594 102.665 99.6112 102.665C98.6287 102.665 97.8427 103.435 97.8427 104.398C97.8427 105.36 98.6287 106.131 99.6112 106.131C100.594 106.131 101.38 105.264 101.38 104.398ZM101.38 109.308C101.38 108.345 100.594 107.575 99.6112 107.575C98.6287 107.575 97.8427 108.345 97.8427 109.308C97.8427 110.271 98.6287 111.041 99.6112 111.041C100.594 111.041 101.38 110.271 101.38 109.308ZM100.888 93.2294C100.594 92.9406 100.102 92.748 99.7095 92.748C99.2182 92.748 98.8252 92.9406 98.5305 93.2294C98.2357 93.5183 98.0392 93.9997 98.0392 94.3848C98.0392 94.8662 98.2357 95.2513 98.5305 95.5401C98.8252 95.829 99.3165 96.0215 99.7095 96.0215C100.201 96.0215 100.594 95.829 100.888 95.5401C101.183 95.2513 101.38 94.7699 101.38 94.3848C101.38 93.9997 101.183 93.6145 100.888 93.2294ZM104.818 110.559C104.032 110.078 102.952 110.271 102.46 111.041C101.969 111.811 102.166 112.87 102.952 113.352C103.738 113.833 104.818 113.64 105.31 112.87C105.899 112.196 105.605 111.137 104.818 110.559ZM109.142 113.255C108.356 112.774 107.275 112.966 106.784 113.737C106.292 114.507 106.489 115.566 107.275 116.047C108.061 116.529 109.142 116.336 109.633 115.566C110.124 114.796 109.928 113.833 109.142 113.255ZM113.366 115.951C112.58 115.47 111.5 115.662 111.008 116.432C110.517 117.203 110.714 118.262 111.5 118.743C112.286 119.225 113.366 119.032 113.858 118.262C114.349 117.492 114.152 116.432 113.366 115.951ZM93.9127 112.966C94.4039 113.737 95.4847 114.026 96.2707 113.448C97.0567 112.966 97.3514 111.907 96.7619 111.137C96.2707 110.367 95.1899 110.078 94.4039 110.656C93.7162 111.137 93.4214 112.196 93.9127 112.966ZM89.6879 115.662C90.1792 116.432 91.2599 116.721 92.0459 116.144C92.8319 115.662 93.1267 114.603 92.5372 113.833C92.0459 113.063 90.9652 112.774 90.1792 113.352C89.3932 113.737 89.1967 114.796 89.6879 115.662ZM85.4631 118.262C85.9544 119.032 87.0352 119.321 87.8212 118.743C88.6072 118.262 88.9019 117.203 88.3124 116.432C87.8212 115.662 86.7404 115.373 85.9544 115.951C85.1684 116.432 84.9719 117.492 85.4631 118.262Z" fill="#ED7864"/>
<defs>
<filter id="filter0_di_2572_9514" x="0.18344" y="0.164924" width="193.385" height="191.402" filterUnits="userSpaceOnUse" color-interpolation-filters="sRGB">
<feFlood flood-opacity="0" result="BackgroundImageFix"/>
<feColorMatrix in="SourceAlpha" type="matrix" values="0 0 0 0 0 0 0 0 0 0 0 0 0 0 0 0 0 0 127 0" result="hardAlpha"/>
<feOffset dx="-3.96687" dy="-1.98344"/>
<feGaussianBlur stdDeviation="1.98344"/>
<feComposite in2="hardAlpha" operator="out"/>
<feColorMatrix type="matrix" values="0 0 0 0 0.9125 0 0 0 0 0.9125 0 0 0 0 0.9125 0 0 0 0.25 0"/>
<feBlend mode="normal" in2="BackgroundImageFix" result="effect1_dropShadow_2572_9514"/>
<feBlend mode="normal" in="SourceGraphic" in2="effect1_dropShadow_2572_9514" result="shape"/>
<feColorMatrix in="SourceAlpha" type="matrix" values="0 0 0 0 0 0 0 0 0 0 0 0 0 0 0 0 0 0 127 0" result="hardAlpha"/>
<feOffset dx="15.8675" dy="12.8923"/>
<feGaussianBlur stdDeviation="1.98344"/>
<feComposite in2="hardAlpha" operator="arithmetic" k2="-1" k3="1"/>
<feColorMatrix type="matrix" values="0 0 0 0 0.533333 0 0 0 0 0.52 0 0 0 0 0.52 0 0 0 0.25 0"/>
<feBlend mode="normal" in2="shape" result="effect2_innerShadow_2572_9514"/>
</filter>
</defs>
</svg>
