<svg width="74" height="74" viewBox="0 0 74 74" fill="none" xmlns="http://www.w3.org/2000/svg">
<circle cx="37" cy="37" r="37" fill="url(#paint0_radial_2604_6880)"/>
<circle cx="37" cy="37" r="22" fill="#27A9E1"/>
<path d="M37 34.5C39.7614 34.5 42 32.2614 42 29.5C42 26.7386 39.7614 24.5 37 24.5C34.2386 24.5 32 26.7386 32 29.5C32 32.2614 34.2386 34.5 37 34.5ZM28.875 38.25C30.6009 38.25 32 36.8509 32 35.125C32 33.3991 30.6009 32 28.875 32C27.1491 32 25.75 33.3991 25.75 35.125C25.75 36.8509 27.1491 38.25 28.875 38.25ZM48.25 35.125C48.25 36.8509 46.8509 38.25 45.125 38.25C43.3991 38.25 42 36.8509 42 35.125C42 33.3991 43.3991 32 45.125 32C46.8509 32 48.25 33.3991 48.25 35.125ZM37 35.75C40.4517 35.75 43.25 38.5483 43.25 42V49.5H30.75V42C30.75 38.5483 33.5482 35.75 37 35.75ZM28.25 41.9999C28.25 41.1337 28.3758 40.297 28.6102 39.507L28.3983 39.5255C26.2063 39.763 24.5 41.6198 24.5 43.8749V49.4999H28.25V41.9999ZM49.5 49.4999V43.8749C49.5 41.5473 47.6824 39.6441 45.3897 39.507C45.6241 40.297 45.75 41.1337 45.75 41.9999V49.4999H49.5Z" fill="white"/>
<defs>
<radialGradient id="paint0_radial_2604_6880" cx="0" cy="0" r="1" gradientUnits="userSpaceOnUse" gradientTransform="translate(37 37) rotate(90) scale(37)">
<stop stop-color="#FFFDFD"/>
<stop offset="1" stop-color="#F3F3F3"/>
</radialGradient>
</defs>
</svg>
