<svg width="110" height="110" viewBox="0 0 110 110" fill="none" xmlns="http://www.w3.org/2000/svg">
<g filter="url(#filter0_i_3103_8262)">
<circle cx="55" cy="55" r="55" fill="url(#paint0_linear_3103_8262)"/>
</g>
<circle cx="55" cy="55" r="53" stroke="#FBFBFB" stroke-width="4"/>
<path d="M36.374 53.4685C36.374 51.8899 34.9478 50.6113 33.187 50.6113C31.4262 50.6113 30 51.8899 30 53.4685V69.2899C30 71.1113 30.8047 72.8542 32.2389 74.1399L40.1984 81.2756C41.1545 82.1328 42.4532 82.6113 43.8077 82.6113H49.122C51.2334 82.6113 52.9464 81.0756 52.9464 79.1828V73.547C52.9464 71.4256 52.0063 69.3899 50.3331 67.8899L48.3173 66.0828L47.1062 64.997L44.5566 62.7113C43.5607 61.8185 41.9433 61.8185 40.9474 62.7113C39.9514 63.6042 39.9514 65.0542 40.9474 65.947L43.497 68.2328L44.708 69.3185C45.5844 70.1042 45.441 71.4042 44.4132 72.0185C43.6404 72.4828 42.6046 72.3899 41.9433 71.797L37.8639 68.147C36.9078 67.2899 36.374 66.1256 36.374 64.9113V53.4685ZM74.618 53.4685V64.9113C74.618 66.1256 74.0842 67.2899 73.1281 68.147L69.0567 71.797C68.3954 72.3899 67.3596 72.4828 66.5868 72.0185C65.559 71.4042 65.4156 70.097 66.292 69.3185L67.5031 68.2328L70.0527 65.947C71.0486 65.0542 71.0486 63.6042 70.0527 62.7113C69.0567 61.8185 67.4393 61.8185 66.4434 62.7113L63.8938 64.997L62.6827 66.0828L60.6669 67.8899C58.9938 69.3899 58.0536 71.4256 58.0536 73.547V79.1828C58.0536 81.0756 59.7666 82.6113 61.878 82.6113H67.1923C68.5468 82.6113 69.8455 82.1328 70.8016 81.2756L78.7611 74.1399C80.1953 72.8542 81 71.1113 81 69.2899V53.4685C81 51.8899 79.5738 50.6113 77.813 50.6113C76.0522 50.6113 74.626 51.8899 74.626 53.4685H74.618Z" fill="white"/>
<path fill-rule="evenodd" clip-rule="evenodd" d="M40.8065 35.6943C40.2654 35.9752 39.902 36.5031 39.8533 37.1108C39.6221 39.9996 39.1385 48.594 41.1872 52.2595C44.3012 57.8312 52.567 62.6226 55.234 64.0641C55.7612 64.3491 56.3853 64.3345 56.9014 64.03C59.5817 62.4486 68.0297 57.1946 70.784 52.2595C73.177 47.9718 72.3814 39.7445 72.0358 37.0343C71.9638 36.4691 71.6153 35.9876 71.1118 35.7212L56.918 28.2109C56.3909 27.932 55.7606 27.9296 55.2314 28.2044L40.8065 35.6943ZM61.3181 40.2322L53.1877 48.4308L50.5694 45.7906C50.3167 45.5358 49.9952 45.4084 49.6048 45.4084C49.2143 45.4084 48.8928 45.5358 48.6401 45.7906C48.3875 46.0453 48.2612 46.3696 48.2612 46.7633C48.2612 47.157 48.3875 47.4813 48.6401 47.736L52.223 51.349C52.4986 51.6269 52.8202 51.7659 53.1877 51.7659C53.5551 51.7659 53.8767 51.6269 54.1523 51.349L63.2474 42.1776C63.5 41.9229 63.6263 41.5986 63.6263 41.2049C63.6263 40.8112 63.5 40.4869 63.2474 40.2322C62.9947 39.9774 62.6732 39.85 62.2827 39.85C61.8923 39.85 61.5707 39.9774 61.3181 40.2322Z" fill="white"/>
<defs>
<filter id="filter0_i_3103_8262" x="0" y="0" width="115" height="115" filterUnits="userSpaceOnUse" color-interpolation-filters="sRGB">
<feFlood flood-opacity="0" result="BackgroundImageFix"/>
<feBlend mode="normal" in="SourceGraphic" in2="BackgroundImageFix" result="shape"/>
<feColorMatrix in="SourceAlpha" type="matrix" values="0 0 0 0 0 0 0 0 0 0 0 0 0 0 0 0 0 0 127 0" result="hardAlpha"/>
<feOffset dx="5" dy="5"/>
<feGaussianBlur stdDeviation="3.5"/>
<feComposite in2="hardAlpha" operator="arithmetic" k2="-1" k3="1"/>
<feColorMatrix type="matrix" values="0 0 0 0 0 0 0 0 0 0 0 0 0 0 0 0 0 0 0.15 0"/>
<feBlend mode="normal" in2="shape" result="effect1_innerShadow_3103_8262"/>
</filter>
<linearGradient id="paint0_linear_3103_8262" x1="-1.51924e-06" y1="9" x2="90.5" y2="110" gradientUnits="userSpaceOnUse">
<stop stop-color="#27A9E1" stop-opacity="0.66"/>
<stop offset="1" stop-color="#8ADBFE"/>
</linearGradient>
</defs>
</svg>
