<svg width="190" height="190" viewBox="0 0 190 190" fill="none" xmlns="http://www.w3.org/2000/svg">
<g filter="url(#filter0_di_2575_7003)">
<circle cx="98.8582" cy="96.8582" r="76.8582" fill="white"/>
<circle cx="98.8582" cy="96.8582" r="83.8002" stroke="#F4F4F4" stroke-width="13.8841"/>
</g>
<path fill-rule="evenodd" clip-rule="evenodd" d="M121.877 115.127C122.984 115.409 124.029 115.848 124.987 116.416L128.88 113.598L131.995 116.713L129.177 120.606C129.745 121.564 130.184 122.609 130.466 123.715L135.211 124.475V128.88L130.467 129.64C130.184 130.747 129.746 131.791 129.178 132.749L131.996 136.642L128.881 139.757L124.988 136.939C124.03 137.507 122.985 137.946 121.878 138.229L121.119 142.973H116.714L115.954 138.229C114.847 137.946 113.803 137.508 112.844 136.94L108.952 139.758L105.836 136.643L108.655 132.75C108.086 131.792 107.649 130.747 107.365 129.64L102.621 128.881V124.476L107.365 123.716C107.648 122.609 108.086 121.565 108.655 120.606L105.836 116.714L108.952 113.599L112.844 116.417C113.803 115.848 114.847 115.41 115.954 115.127L116.714 110.384H121.119L121.877 115.127ZM118.069 118.967C121.859 118.967 124.932 122.039 124.932 125.829C124.932 129.619 121.859 132.691 118.069 132.691C114.279 132.691 111.207 129.619 111.207 125.829C111.206 122.039 114.278 118.967 118.069 118.967Z" fill="#ED7864"/>
<path fill-rule="evenodd" clip-rule="evenodd" d="M111.273 72.8678V69.9688C111.273 67.0304 108.87 64.627 105.931 64.627H89.9829C87.0445 64.627 84.6411 67.0312 84.6411 69.9688V72.8678H89.3698V69.9688C89.3698 69.6413 89.6554 69.3557 89.9829 69.3557H105.931C106.259 69.3557 106.544 69.6413 106.544 69.9688V72.8678H111.273ZM66.8912 98.7882V118.208C66.8912 120.953 69.1377 123.2 71.8832 123.2H104.526V119.753L109.846 118.901C109.939 118.659 110.038 118.42 110.144 118.184L106.984 113.82L113.045 107.759L117.41 110.918C117.646 110.813 117.886 110.714 118.127 110.621L118.978 105.301H127.55L128.401 110.621C128.611 110.701 128.818 110.786 129.023 110.876V98.7882C128.941 98.8422 128.858 98.8946 128.775 98.9477C124.386 101.725 115.661 103.411 106.006 104.007C105.339 107.849 101.989 110.77 97.9571 110.77C93.9254 110.77 90.5754 107.849 89.9083 104.007C80.2544 103.412 71.5299 101.725 67.139 98.9469C67.0558 98.8946 66.9735 98.8414 66.8912 98.7882ZM127.468 96.8821C123.465 99.415 115.235 100.971 106.059 101.542C105.541 97.5304 102.111 94.429 97.9571 94.429C93.8019 94.429 90.3705 97.5329 89.8543 101.547C80.6925 100.98 72.4705 99.4287 68.4457 96.8821C67.897 96.5349 67.3739 96.1653 66.8912 95.7683C65.0957 94.2944 63.8516 92.4535 63.8516 90.0372V77.8684C63.8516 76.4596 65.0005 75.3107 66.4093 75.3107H78.9254V83.6278C78.9254 84.8471 79.4235 85.9549 80.2252 86.7566C81.0269 87.5583 82.1348 88.0565 83.354 88.0565H112.56C113.779 88.0565 114.887 87.5583 115.689 86.7566C116.491 85.9549 116.989 84.8471 116.989 83.6278V75.3107H129.505C130.914 75.3107 132.063 76.4596 132.063 77.8684V90.0381C132.063 92.4543 130.818 94.2952 129.022 95.7692C128.539 96.1653 128.017 96.5349 127.468 96.8821ZM114.545 75.3107H81.3682V83.6278C81.3682 84.1723 81.592 84.6688 81.9521 85.0289C82.3122 85.389 82.8087 85.6128 83.3532 85.6128H112.559C113.104 85.6128 113.6 85.389 113.96 85.0289C114.32 84.6688 114.544 84.1723 114.544 83.6278V75.3107H114.545ZM92.2303 102.6C92.2303 99.4467 94.7837 96.8727 97.9571 96.8727C101.13 96.8727 103.684 99.4467 103.684 102.6C103.684 105.763 101.12 108.326 97.9571 108.326C94.794 108.326 92.2303 105.762 92.2303 102.6Z" fill="#27A9E1"/>
<defs>
<filter id="filter0_di_2575_7003" x="0.18344" y="0.164924" width="193.385" height="191.402" filterUnits="userSpaceOnUse" color-interpolation-filters="sRGB">
<feFlood flood-opacity="0" result="BackgroundImageFix"/>
<feColorMatrix in="SourceAlpha" type="matrix" values="0 0 0 0 0 0 0 0 0 0 0 0 0 0 0 0 0 0 127 0" result="hardAlpha"/>
<feOffset dx="-3.96687" dy="-1.98344"/>
<feGaussianBlur stdDeviation="1.98344"/>
<feComposite in2="hardAlpha" operator="out"/>
<feColorMatrix type="matrix" values="0 0 0 0 0.9125 0 0 0 0 0.9125 0 0 0 0 0.9125 0 0 0 0.25 0"/>
<feBlend mode="normal" in2="BackgroundImageFix" result="effect1_dropShadow_2575_7003"/>
<feBlend mode="normal" in="SourceGraphic" in2="effect1_dropShadow_2575_7003" result="shape"/>
<feColorMatrix in="SourceAlpha" type="matrix" values="0 0 0 0 0 0 0 0 0 0 0 0 0 0 0 0 0 0 127 0" result="hardAlpha"/>
<feOffset dx="15.8675" dy="12.8923"/>
<feGaussianBlur stdDeviation="1.98344"/>
<feComposite in2="hardAlpha" operator="arithmetic" k2="-1" k3="1"/>
<feColorMatrix type="matrix" values="0 0 0 0 0.533333 0 0 0 0 0.52 0 0 0 0 0.52 0 0 0 0.25 0"/>
<feBlend mode="normal" in2="shape" result="effect2_innerShadow_2575_7003"/>
</filter>
</defs>
</svg>
