<svg width="74" height="74" viewBox="0 0 74 74" fill="none" xmlns="http://www.w3.org/2000/svg">
<circle cx="37" cy="37" r="37" fill="url(#paint0_radial_2604_6870)"/>
<circle cx="37" cy="37" r="22" fill="#27A9E1"/>
<path d="M33.6703 36.3784L36.3828 36.3789C39.4895 36.3789 42.0078 38.8972 42.0078 42.0039H33.2566L33.2578 43.2539L43.2578 43.2529V42.0039C43.2578 40.6509 42.8601 39.375 42.1502 38.2529L45.7578 38.2539C48.2482 38.2539 50.3983 39.7105 51.403 41.8181C48.447 45.719 43.6602 48.2539 38.2578 48.2539C34.8062 48.2539 31.8823 47.5156 29.5074 46.223L29.5091 34.5927C31.0661 34.8156 32.4907 35.4485 33.6703 36.3784ZM28.2578 45.7539C28.2578 46.4442 27.6982 47.0039 27.0078 47.0039H24.5078C23.8175 47.0039 23.2578 46.4442 23.2578 45.7539V34.5039C23.2578 33.8135 23.8175 33.2539 24.5078 33.2539H27.0078C27.6982 33.2539 28.2578 33.8135 28.2578 34.5039V45.7539ZM44.5078 28.2539C46.5788 28.2539 48.2578 29.9328 48.2578 32.0039C48.2578 34.075 46.5788 35.7539 44.5078 35.7539C42.4367 35.7539 40.7578 34.075 40.7578 32.0039C40.7578 29.9328 42.4367 28.2539 44.5078 28.2539ZM35.7578 24.5039C37.8288 24.5039 39.5078 26.1828 39.5078 28.2539C39.5078 30.325 37.8288 32.0039 35.7578 32.0039C33.6867 32.0039 32.0078 30.325 32.0078 28.2539C32.0078 26.1828 33.6867 24.5039 35.7578 24.5039Z" fill="white"/>
<path d="M34.3288 29.1999H36.1693C36.2617 29.1999 36.3366 29.1216 36.3366 29.0249C36.3366 28.9283 36.2617 28.8499 36.1693 28.8499H34.8307C34.3687 28.8499 33.9942 28.4583 33.9942 27.9751C33.9942 27.4919 34.3687 27.1002 34.8307 27.1002H35.1654V26.7503H35.8346V27.1002H36.6712V27.8001H34.8307C34.7383 27.8001 34.6634 27.8785 34.6634 27.9751C34.6634 28.0717 34.7383 28.15 34.8307 28.15H36.1693C36.6313 28.15 37.0058 28.5417 37.0058 29.0249C37.0058 29.5081 36.6313 29.8998 36.1693 29.8998H35.8346V30.2497H35.1654V29.8998H34.3288V29.1999Z" fill="#27A9E1"/>
<path d="M43.3288 33.1999H45.1693C45.2617 33.1999 45.3366 33.1216 45.3366 33.0249C45.3366 32.9283 45.2617 32.8499 45.1693 32.8499H43.8307C43.3687 32.8499 42.9942 32.4583 42.9942 31.9751C42.9942 31.4919 43.3687 31.1002 43.8307 31.1002H44.1654V30.7503H44.8346V31.1002H45.6712V31.8001H43.8307C43.7383 31.8001 43.6634 31.8785 43.6634 31.9751C43.6634 32.0717 43.7383 32.15 43.8307 32.15H45.1693C45.6313 32.15 46.0058 32.5417 46.0058 33.0249C46.0058 33.5081 45.6313 33.8998 45.1693 33.8998H44.8346V34.2497H44.1654V33.8998H43.3288V33.1999Z" fill="#27A9E1"/>
<defs>
<radialGradient id="paint0_radial_2604_6870" cx="0" cy="0" r="1" gradientUnits="userSpaceOnUse" gradientTransform="translate(37 37) rotate(90) scale(37)">
<stop stop-color="#FFFDFD"/>
<stop offset="1" stop-color="#F3F3F3"/>
</radialGradient>
</defs>
</svg>
