<svg width="490" height="440" viewBox="0 0 490 440" fill="none" xmlns="http://www.w3.org/2000/svg">
<path d="M223.266 296.216L316.076 242.121C317.678 241.188 317.684 238.875 316.087 237.933L256.282 202.662" stroke="#F4D0B1" stroke-miterlimit="10"/>
<path d="M277.145 354.852L362.136 305.475" stroke="#27A9E1" stroke-miterlimit="10"/>
<path d="M126.992 261.19L211.984 211.812" stroke="#27A9E1" stroke-miterlimit="10"/>
<path d="M270.27 350.615L355.26 301.238" stroke="#F06466" stroke-miterlimit="10"/>
<path d="M294.1 336.769C295.38 337.509 295.387 338.707 294.114 339.445C292.843 340.184 290.775 340.184 289.496 339.445C288.216 338.705 288.209 337.509 289.481 336.769C290.752 336.03 292.82 336.03 294.1 336.769Z" fill="#F06466"/>
<path d="M301.096 332.708C302.376 333.447 302.383 334.644 301.111 335.383C299.839 336.123 297.771 336.123 296.492 335.383C295.212 334.644 295.205 333.446 296.477 332.708C297.747 331.97 299.815 331.97 301.096 332.708Z" fill="#F06466"/>
<path d="M308.084 328.646C309.364 329.386 309.371 330.584 308.099 331.322C306.828 332.061 304.76 332.061 303.48 331.322C302.2 330.582 302.193 329.384 303.465 328.646C304.737 327.907 306.804 327.907 308.084 328.646Z" fill="#F06466"/>
<path d="M226.359 286.478L301.867 242.468C303.469 241.535 303.475 239.222 301.878 238.28L242.073 203.01" stroke="#F06466" stroke-miterlimit="10"/>
<path d="M284.901 251.849C286.18 252.589 286.188 253.785 284.915 254.525C283.644 255.264 281.576 255.264 280.296 254.525C279.017 253.785 279.009 252.589 280.282 251.849C281.553 251.11 283.621 251.11 284.901 251.849Z" fill="#F06466"/>
<path d="M291.897 247.789C293.176 248.528 293.184 249.725 291.911 250.464C290.64 251.204 288.572 251.204 287.293 250.464C286.013 249.725 286.005 248.528 287.278 247.789C288.548 247.05 290.616 247.05 291.897 247.789Z" fill="#F06466"/>
<path d="M298.885 243.725C300.165 244.465 300.172 245.662 298.9 246.401C297.628 247.14 295.561 247.14 294.281 246.401C293.001 245.662 292.994 244.465 294.266 243.725C295.537 242.987 297.605 242.987 298.885 243.725Z" fill="#F06466"/>
<path d="M291.654 229.252C292.934 229.991 292.942 231.189 291.669 231.927C290.398 232.666 288.33 232.666 287.05 231.927C285.771 231.188 285.763 229.991 287.036 229.252C288.307 228.512 290.375 228.512 291.654 229.252Z" fill="#F06466"/>
<path d="M284.658 225.184C285.938 225.924 285.945 227.121 284.673 227.86C283.402 228.599 281.334 228.599 280.054 227.86C278.775 227.121 278.767 225.924 280.04 225.184C281.311 224.446 283.379 224.446 284.658 225.184Z" fill="#F06466"/>
<path d="M271.449 270.051L156.664 336.954C154.02 338.495 150.752 338.492 148.11 336.947L107.113 312.952" stroke="#F06466" stroke-miterlimit="10"/>
<path d="M141.635 330.679C142.915 331.419 142.922 332.616 141.65 333.355C140.378 334.094 138.311 334.094 137.031 333.355C135.751 332.616 135.744 331.419 137.016 330.679C138.286 329.94 140.354 329.94 141.635 330.679Z" fill="#F06466"/>
<path d="M134.639 326.612C135.919 327.351 135.926 328.548 134.654 329.288C133.382 330.027 131.314 330.027 130.035 329.288C128.755 328.548 128.748 327.351 130.02 326.612C131.291 325.874 133.359 325.874 134.639 326.612Z" fill="#F06466"/>
<path d="M284.023 359.087L369.015 309.709" stroke="#F4D0B1" stroke-miterlimit="10"/>
<path d="M343.674 324.423C344.954 325.162 344.961 326.36 343.689 327.098C342.417 327.837 340.35 327.837 339.07 327.098C337.79 326.359 337.783 325.161 339.055 324.423C340.326 323.685 342.394 323.685 343.674 324.423Z" fill="#F4D0B1"/>
<path d="M350.67 320.363C351.95 321.102 351.957 322.299 350.685 323.038C349.414 323.778 347.346 323.778 346.066 323.038C344.786 322.299 344.779 321.102 346.051 320.363C347.323 319.624 349.39 319.624 350.67 320.363Z" fill="#F4D0B1"/>
<path d="M357.658 316.3C358.938 317.039 358.945 318.236 357.673 318.975C356.402 319.714 354.334 319.714 353.054 318.975C351.774 318.236 351.767 317.039 353.04 316.3C354.311 315.562 356.379 315.562 357.658 316.3Z" fill="#F4D0B1"/>
<path d="M266.635 264.912L156.662 329.009C154.019 330.55 150.75 330.547 148.109 329.002L107.113 305.008" stroke="#F4D0B1" stroke-miterlimit="10"/>
<path d="M187.612 310.896C188.891 311.636 188.899 312.832 187.626 313.572C186.355 314.311 184.287 314.311 183.007 313.572C181.728 312.832 181.72 311.636 182.993 310.896C184.264 310.157 186.332 310.157 187.612 310.896Z" fill="#F4D0B1"/>
<path d="M194.608 306.834C195.887 307.573 195.895 308.77 194.622 309.509C193.351 310.248 191.283 310.248 190.003 309.509C188.724 308.77 188.716 307.572 189.989 306.834C191.26 306.094 193.328 306.094 194.608 306.834Z" fill="#F4D0B1"/>
<path d="M201.597 302.773C202.877 303.513 202.884 304.711 201.612 305.449C200.341 306.188 198.273 306.188 196.992 305.449C195.712 304.709 195.705 303.513 196.977 302.773C198.248 302.034 200.316 302.034 201.597 302.773Z" fill="#F4D0B1"/>
<path d="M133.867 265.426L218.859 216.049" stroke="#F4D0B1" stroke-miterlimit="10"/>
<path d="M194.85 230.109C196.13 230.848 196.137 232.045 194.864 232.785C193.593 233.524 191.525 233.524 190.246 232.785C188.966 232.045 188.959 230.848 190.231 230.109C191.502 229.37 193.57 229.37 194.85 230.109Z" fill="#F4D0B1"/>
<path d="M201.846 226.049C203.126 226.788 203.133 227.986 201.861 228.724C200.589 229.463 198.522 229.463 197.242 228.724C195.962 227.985 195.955 226.788 197.227 226.049C198.498 225.309 200.566 225.309 201.846 226.049Z" fill="#F4D0B1"/>
<path d="M208.834 221.986C210.114 222.725 210.121 223.923 208.849 224.662C207.578 225.401 205.51 225.401 204.23 224.662C202.95 223.922 202.943 222.725 204.215 221.986C205.485 221.247 207.553 221.247 208.834 221.986Z" fill="#F4D0B1"/>
<path d="M251.383 301.753L361.356 237.656C364 236.115 367.268 236.117 369.909 237.663L410.906 261.657" stroke="#F4D0B1" stroke-miterlimit="10"/>
<path d="M310.643 267.209C311.923 267.948 311.93 269.145 310.657 269.884C309.386 270.624 307.318 270.624 306.039 269.884C304.759 269.145 304.752 267.948 306.024 267.209C307.295 266.469 309.362 266.469 310.643 267.209Z" fill="#F4D0B1"/>
<path d="M317.631 263.148C318.911 263.888 318.918 265.084 317.646 265.824C316.375 266.563 314.307 266.563 313.027 265.824C311.747 265.084 311.74 263.888 313.012 263.148C314.283 262.409 316.351 262.409 317.631 263.148Z" fill="#F4D0B1"/>
<path d="M324.627 259.085C325.907 259.824 325.914 261.022 324.642 261.76C323.371 262.5 321.303 262.5 320.023 261.76C318.743 261.021 318.736 259.824 320.008 259.085C321.28 258.347 323.347 258.347 324.627 259.085Z" fill="#F4D0B1"/>
<path d="M246.559 296.613L361.344 229.71C363.988 228.169 367.256 228.173 369.898 229.717L410.895 253.712" stroke="#27A9E1" stroke-miterlimit="10"/>
<path d="M290.108 271.269C291.387 272.009 291.395 273.207 290.122 273.945C288.851 274.684 286.783 274.684 285.503 273.945C284.224 273.205 284.216 272.009 285.489 271.269C286.76 270.53 288.827 270.53 290.108 271.269Z" fill="#27A9E1"/>
<path d="M297.104 267.207C298.383 267.946 298.391 269.143 297.118 269.882C295.847 270.622 293.779 270.622 292.5 269.882C291.22 269.143 291.212 267.946 292.485 267.207C293.755 266.468 295.823 266.468 297.104 267.207Z" fill="#27A9E1"/>
<path d="M304.092 263.146C305.372 263.886 305.379 265.082 304.107 265.822C302.835 266.561 300.768 266.561 299.488 265.822C298.208 265.082 298.201 263.886 299.473 263.146C300.744 262.407 302.812 262.407 304.092 263.146Z" fill="#27A9E1"/>
<path d="M271.451 288.889L195.943 332.898C194.341 333.831 194.335 336.144 195.932 337.086L255.738 372.357" stroke="#F06466" stroke-miterlimit="10"/>
<path d="M213.182 344.621C214.462 345.36 214.469 346.558 213.196 347.296C211.925 348.036 209.857 348.036 208.578 347.296C207.298 346.557 207.291 345.359 208.563 344.621C209.834 343.882 211.902 343.882 213.182 344.621Z" fill="#F06466"/>
<path d="M206.186 340.554C207.466 341.294 207.473 342.492 206.2 343.23C204.929 343.969 202.861 343.969 201.582 343.23C200.302 342.491 200.295 341.294 201.567 340.554C202.838 339.815 204.906 339.815 206.186 340.554Z" fill="#F06466"/>
<path d="M216.971 320.816C218.251 321.555 218.258 322.752 216.986 323.492C215.714 324.231 213.646 324.231 212.367 323.492C211.087 322.752 211.08 321.555 212.352 320.816C213.623 320.077 215.691 320.077 216.971 320.816Z" fill="#F06466"/>
<path d="M223.967 316.756C225.247 317.495 225.254 318.693 223.982 319.431C222.71 320.17 220.643 320.17 219.363 319.431C218.083 318.692 218.076 317.494 219.348 316.756C220.619 316.016 222.687 316.016 223.967 316.756Z" fill="#F06466"/>
<path d="M230.955 312.693C232.235 313.432 232.242 314.629 230.97 315.369C229.699 316.108 227.631 316.108 226.351 315.369C225.071 314.629 225.064 313.432 226.336 312.693C227.608 311.954 229.676 311.954 230.955 312.693Z" fill="#F06466"/>
<path d="M274.551 279.15L181.74 333.245C180.138 334.178 180.132 336.491 181.729 337.433L241.535 372.704" stroke="#27A9E1" stroke-miterlimit="10"/>
<path d="M192.44 326.77C193.719 327.51 193.727 328.708 192.454 329.446C191.183 330.185 189.115 330.185 187.835 329.446C186.556 328.706 186.548 327.51 187.821 326.77C189.092 326.032 191.16 326.032 192.44 326.77Z" fill="#27A9E1"/>
<path d="M199.436 322.709C200.716 323.448 200.723 324.646 199.45 325.384C198.179 326.123 196.111 326.123 194.832 325.384C193.552 324.645 193.545 323.447 194.817 322.709C196.088 321.969 198.156 321.969 199.436 322.709Z" fill="#27A9E1"/>
<path d="M206.424 318.648C207.704 319.388 207.711 320.584 206.439 321.324C205.167 322.063 203.1 322.063 201.82 321.324C200.54 320.584 200.533 319.388 201.805 318.648C203.076 317.909 205.144 317.909 206.424 318.648Z" fill="#27A9E1"/>
<path d="M120.117 256.955L205.109 207.578" stroke="#F06466" stroke-miterlimit="10"/>
<path d="M172.405 226.576C173.684 227.315 173.692 228.512 172.419 229.251C171.148 229.991 169.08 229.991 167.8 229.251C166.521 228.512 166.513 227.314 167.786 226.576C169.057 225.837 171.125 225.837 172.405 226.576Z" fill="#F06466"/>
<path d="M179.394 222.515C180.674 223.255 180.681 224.453 179.409 225.191C178.137 225.93 176.07 225.93 174.789 225.191C173.509 224.451 173.502 223.255 174.774 222.515C176.046 221.776 178.114 221.776 179.394 222.515Z" fill="#F06466"/>
<path d="M186.389 218.452C187.669 219.191 187.676 220.388 186.404 221.127C185.132 221.867 183.064 221.867 181.785 221.127C180.505 220.388 180.498 219.191 181.77 218.452C183.04 217.714 185.108 217.714 186.389 218.452Z" fill="#F06466"/>
<path d="M137.352 98.6805C137.352 98.0596 137.787 97.3044 138.325 96.9945C138.863 96.6834 139.299 96.936 139.299 97.5569C139.299 98.1779 138.863 98.9331 138.325 99.2429C137.787 99.554 137.352 99.3015 137.352 98.6805Z" fill="#4D4C7B"/>
<path d="M137.352 86.2567C137.352 85.6357 137.787 84.8806 138.325 84.5707C138.863 84.2596 139.299 84.5121 139.299 85.1331C139.299 85.7541 138.863 86.5092 138.325 86.8191C137.787 87.129 137.352 86.8777 137.352 86.2567Z" fill="#4D4C7B"/>
<path d="M137.352 73.8329C137.352 73.2119 137.787 72.4568 138.325 72.1469C138.863 71.8358 139.299 72.0883 139.299 72.7093C139.299 73.3303 138.863 74.0854 138.325 74.3953C137.787 74.7052 137.352 74.4539 137.352 73.8329Z" fill="#4D4C7B"/>
<path d="M137.352 61.4066C137.352 60.7856 137.787 60.0304 138.325 59.7206C138.863 59.4107 139.299 59.662 139.299 60.283C139.299 60.9039 138.863 61.6591 138.325 61.969C137.787 62.2788 137.352 62.0275 137.352 61.4066Z" fill="#4D4C7B"/>
<path d="M137.352 48.9833C137.352 48.3623 137.787 47.6071 138.325 47.2973C138.863 46.9862 139.299 47.2387 139.299 47.8597C139.299 48.4806 138.863 49.2358 138.325 49.5457C137.787 49.8555 137.352 49.6042 137.352 48.9833Z" fill="#4D4C7B"/>
<path d="M137.352 36.5575C137.352 35.9365 137.787 35.1814 138.325 34.8715C138.863 34.5604 139.299 34.8129 139.299 35.4339C139.299 36.0549 138.863 36.81 138.325 37.1199C137.787 37.431 137.352 37.1785 137.352 36.5575Z" fill="#4D4C7B"/>
<path d="M137.352 24.1331C137.352 23.5122 137.787 22.757 138.325 22.4471C138.863 22.1373 139.299 22.3886 139.299 23.0095C139.299 23.6305 138.863 24.3857 138.325 24.6955C137.787 25.0054 137.352 24.7541 137.352 24.1331Z" fill="#4D4C7B"/>
<path d="M190.438 128.403C190.438 127.782 190.873 127.027 191.411 126.717C191.949 126.407 192.385 126.658 192.385 127.279C192.385 127.9 191.949 128.655 191.411 128.965C190.873 129.275 190.438 129.024 190.438 128.403Z" fill="#4D4C7B"/>
<path d="M190.438 115.977C190.438 115.356 190.873 114.601 191.411 114.291C191.949 113.981 192.385 114.232 192.385 114.853C192.385 115.474 191.949 116.229 191.411 116.539C190.873 116.849 190.438 116.598 190.438 115.977Z" fill="#4D4C7B"/>
<path d="M190.438 103.553C190.438 102.932 190.873 102.177 191.411 101.867C191.949 101.557 192.385 101.808 192.385 102.429C192.385 103.05 191.949 103.806 191.411 104.115C190.873 104.425 190.438 104.174 190.438 103.553Z" fill="#4D4C7B"/>
<path d="M190.438 91.1273C190.438 90.5063 190.873 89.7511 191.411 89.4413C191.949 89.1314 192.385 89.3827 192.385 90.0037C192.385 90.6246 191.949 91.3798 191.411 91.6897C190.873 91.9995 190.438 91.7482 190.438 91.1273Z" fill="#4D4C7B"/>
<path d="M190.438 78.7034C190.438 78.0825 190.873 77.3273 191.411 77.0174C191.949 76.7076 192.385 76.9589 192.385 77.5798C192.385 78.2008 191.949 78.956 191.411 79.2658C190.873 79.5757 190.438 79.3244 190.438 78.7034Z" fill="#4D4C7B"/>
<path d="M190.438 66.2777C190.438 65.6567 190.873 64.9015 191.411 64.5917C191.949 64.2818 192.385 64.5331 192.385 65.1541C192.385 65.775 191.949 66.5302 191.411 66.8401C190.873 67.1499 190.438 66.8986 190.438 66.2777Z" fill="#4D4C7B"/>
<path d="M190.438 53.8538C190.438 53.2329 190.873 52.4777 191.411 52.1678C191.949 51.858 192.385 52.1093 192.385 52.7302C192.385 53.3512 191.949 54.1064 191.411 54.4162C190.873 54.7261 190.438 54.4748 190.438 53.8538Z" fill="#4D4C7B"/>
<path d="M372.531 100.233C372.531 99.6118 372.967 98.8566 373.505 98.5467C374.043 98.2369 374.478 98.4882 374.478 99.1091C374.478 99.7301 374.043 100.485 373.505 100.795C372.967 101.105 372.531 100.854 372.531 100.233Z" fill="#4D4C7B"/>
<path d="M372.531 87.807C372.531 87.186 372.967 86.4308 373.505 86.121C374.043 85.8111 374.478 86.0624 374.478 86.6834C374.478 87.3043 374.043 88.0595 373.505 88.3694C372.967 88.6792 372.531 88.4279 372.531 87.807Z" fill="#4D4C7B"/>
<path d="M372.531 75.3831C372.531 74.7622 372.967 74.007 373.505 73.6971C374.043 73.3873 374.478 73.6386 374.478 74.2595C374.478 74.8805 374.043 75.6357 373.505 75.9455C372.967 76.2554 372.531 76.0041 372.531 75.3831Z" fill="#4D4C7B"/>
<path d="M372.531 62.9573C372.531 62.3364 372.967 61.5812 373.505 61.2713C374.043 60.9615 374.478 61.2128 374.478 61.8338C374.478 62.4547 374.043 63.2099 373.505 63.5198C372.967 63.8296 372.531 63.5783 372.531 62.9573Z" fill="#4D4C7B"/>
<path d="M372.531 50.5341C372.531 49.9131 372.967 49.1579 373.505 48.8481C374.043 48.537 374.478 48.7895 374.478 49.4105C374.478 50.0314 374.043 50.7866 373.505 51.0965C372.967 51.4063 372.531 51.155 372.531 50.5341Z" fill="#4D4C7B"/>
<path d="M372.531 38.1097C372.531 37.4887 372.967 36.7336 373.505 36.4237C374.043 36.1138 374.478 36.3651 374.478 36.9861C374.478 37.6071 374.043 38.3622 373.505 38.6721C372.967 38.982 372.531 38.7294 372.531 38.1097Z" fill="#4D4C7B"/>
<path d="M372.531 25.6839C372.531 25.0629 372.967 24.3078 373.505 23.9979C374.043 23.688 374.478 23.9394 374.478 24.5603C374.478 25.1813 374.043 25.9364 373.505 26.2463C372.967 26.5562 372.531 26.3049 372.531 25.6839Z" fill="#4D4C7B"/>
<path d="M358.547 79.2548C358.547 78.6338 358.982 77.8786 359.52 77.5688C360.058 77.2577 360.494 77.5102 360.494 78.1312C360.494 78.7521 360.058 79.5073 359.52 79.8172C358.984 80.127 358.547 79.8757 358.547 79.2548Z" fill="#4D4C7B"/>
<path d="M358.547 66.8304C358.547 66.2094 358.982 65.4543 359.52 65.1444C360.058 64.8345 360.494 65.0858 360.494 65.7068C360.494 66.3278 360.058 67.0829 359.52 67.3928C358.982 67.7027 358.547 67.4514 358.547 66.8304Z" fill="#4D4C7B"/>
<path d="M358.547 54.4046C358.547 53.7836 358.982 53.0285 359.52 52.7186C360.058 52.4087 360.494 52.6601 360.494 53.281C360.494 53.902 360.058 54.6571 359.52 54.967C358.982 55.2769 358.547 55.0256 358.547 54.4046Z" fill="#4D4C7B"/>
<path d="M358.547 41.9808C358.547 41.3598 358.982 40.6047 359.52 40.2948C360.058 39.9849 360.494 40.2362 360.494 40.8572C360.494 41.4782 360.058 42.2333 359.52 42.5432C358.984 42.8531 358.547 42.6018 358.547 41.9808Z" fill="#4D4C7B"/>
<path d="M358.547 29.555C358.547 28.934 358.982 28.1789 359.52 27.869C360.058 27.5591 360.494 27.8104 360.494 28.4314C360.494 29.0524 360.058 29.8075 359.52 30.1174C358.982 30.4273 358.547 30.176 358.547 29.555Z" fill="#4D4C7B"/>
<path d="M358.547 17.1312C358.547 16.5102 358.982 15.755 359.52 15.4452C360.058 15.1353 360.494 15.3866 360.494 16.0076C360.494 16.6285 360.058 17.3837 359.52 17.6936C358.982 18.0034 358.547 17.7521 358.547 17.1312Z" fill="#4D4C7B"/>
<path d="M358.547 4.70539C358.547 4.08443 358.982 3.32926 359.52 3.01939C360.058 2.70952 360.494 2.96084 360.494 3.5818C360.494 4.20277 360.058 4.95793 359.52 5.2678C358.984 5.57889 358.547 5.32636 358.547 4.70539Z" fill="#4D4C7B"/>
<path d="M202.938 94.3036C202.938 93.6826 203.373 92.9275 203.911 92.6176C204.449 92.3065 204.885 92.559 204.885 93.18C204.885 93.801 204.449 94.5561 203.911 94.866C203.373 95.1771 202.938 94.9245 202.938 94.3036Z" fill="#4D4C7B"/>
<path d="M202.938 81.8798C202.938 81.2588 203.373 80.5036 203.911 80.1938C204.449 79.8827 204.885 80.1352 204.885 80.7562C204.885 81.3771 204.449 82.1323 203.911 82.4422C203.373 82.752 202.938 82.5007 202.938 81.8798Z" fill="#4D4C7B"/>
<path d="M202.938 69.4554C202.938 68.8344 203.373 68.0793 203.911 67.7694C204.449 67.4595 204.885 67.7108 204.885 68.3318C204.885 68.9528 204.449 69.7079 203.911 70.0178C203.373 70.3277 202.938 70.0764 202.938 69.4554Z" fill="#4D4C7B"/>
<path d="M202.938 57.0301C202.938 56.4092 203.373 55.654 203.911 55.3441C204.449 55.0331 204.885 55.2856 204.885 55.9066C204.885 56.5275 204.449 57.2827 203.911 57.5925C203.373 57.9024 202.938 57.6511 202.938 57.0301Z" fill="#4D4C7B"/>
<path d="M202.938 44.6063C202.938 43.9854 203.373 43.2302 203.911 42.9203C204.449 42.6092 204.885 42.8618 204.885 43.4827C204.885 44.1037 204.449 44.8589 203.911 45.1687C203.373 45.4786 202.938 45.2273 202.938 44.6063Z" fill="#4D4C7B"/>
<path d="M202.938 32.1805C202.938 31.5596 203.373 30.8044 203.911 30.4945C204.449 30.1834 204.885 30.436 204.885 31.0569C204.885 31.6779 204.449 32.4331 203.911 32.7429C203.373 33.054 202.938 32.8015 202.938 32.1805Z" fill="#4D4C7B"/>
<path d="M202.938 19.7567C202.938 19.1357 203.373 18.3806 203.911 18.0707C204.449 17.7596 204.885 18.0121 204.885 18.6331C204.885 19.2541 204.449 20.0092 203.911 20.3191C203.373 20.629 202.938 20.3777 202.938 19.7567Z" fill="#4D4C7B"/>
<path d="M162.802 285.323C167.372 287.962 167.397 292.243 162.856 294.881L91.6339 336.271C87.0932 338.91 79.7014 338.91 75.1314 336.271L3.44343 294.883C-1.12658 292.244 -1.15098 287.963 3.38975 285.324L74.6116 243.934C79.1524 241.295 86.5442 241.295 91.1142 243.934L162.802 285.323Z" fill="#4D4C7B"/>
<path d="M158.058 284.215L91.1229 323.112C86.8554 325.592 79.9089 325.592 75.6134 323.112L8.24172 284.216C6.08115 282.968 5.00147 281.329 5.00513 279.693L4.98439 287.038C4.97951 288.674 6.05919 290.313 8.22097 291.561L75.5939 330.459C79.8894 332.939 86.8359 332.939 91.1034 330.459L158.038 291.56C160.159 290.328 161.219 288.715 161.224 287.1L161.244 279.756C161.238 281.37 160.177 282.982 158.058 284.215Z" fill="url(#paint0_linear_2545_6875)"/>
<path d="M158.001 275.232C162.297 277.713 162.319 281.736 158.051 284.216L91.1161 323.115C86.8487 325.595 79.9022 325.595 75.6066 323.115L8.23618 284.216C3.94066 281.736 3.9187 277.713 8.18616 275.232L75.1211 236.335C79.3885 233.855 86.3351 233.855 90.6306 236.335L158.001 275.232Z" fill="#A4D4ED"/>
<path d="M125.383 306.715C125.383 306.212 125.735 305.601 126.171 305.35C126.606 305.099 126.959 305.302 126.959 305.805C126.959 306.308 126.606 306.919 126.171 307.17C125.737 307.421 125.383 307.218 125.383 306.715Z" fill="#F06466"/>
<path d="M133.336 302.119C133.336 301.617 133.689 301.005 134.124 300.754C134.56 300.503 134.912 300.707 134.912 301.209C134.912 301.712 134.56 302.323 134.124 302.574C133.689 302.826 133.336 302.622 133.336 302.119Z" fill="#F06466"/>
<path d="M141.691 297.303C141.691 296.8 142.044 296.189 142.48 295.938C142.915 295.686 143.268 295.89 143.268 296.393C143.268 296.895 142.915 297.507 142.48 297.758C142.044 298.009 141.691 297.806 141.691 297.303Z" fill="#F06466"/>
<path d="M149.648 292.705C149.648 292.203 150.001 291.591 150.437 291.34C150.872 291.089 151.225 291.292 151.225 291.795C151.225 292.298 150.872 292.909 150.437 293.16C150.001 293.412 149.648 293.208 149.648 292.705Z" fill="#F06466"/>
<path d="M158.062 264.505L91.1268 303.402C86.8593 305.883 79.9128 305.883 75.6173 303.402L8.24562 264.506C6.08505 263.258 5.00538 261.62 5.00904 259.982L4.9883 267.327C4.98342 268.963 6.06309 270.602 8.22488 271.849L75.5978 310.747C79.8933 313.227 86.8398 313.227 91.1073 310.747L158.042 271.848C160.162 270.616 161.223 269.003 161.228 267.388L161.248 260.043C161.242 261.66 160.181 263.273 158.062 264.505Z" fill="url(#paint1_linear_2545_6875)"/>
<path d="M158.005 255.521C162.3 258.002 162.322 262.025 158.055 264.505L91.12 303.403C86.8526 305.883 79.9061 305.883 75.6105 303.403L8.24009 264.506C3.94457 262.026 3.92261 258.003 8.19007 255.523L75.125 216.624C79.3925 214.144 86.339 214.144 90.6345 216.624L158.005 255.521Z" fill="#A4D4ED"/>
<path d="M158.062 244.797L91.1268 283.694C86.8593 286.174 79.9128 286.174 75.6173 283.694L8.24562 244.798C6.08505 243.55 5.00538 241.911 5.00904 240.275L4.9883 247.62C4.98342 249.256 6.06309 250.895 8.22488 252.143L75.5978 291.041C79.8933 293.521 86.8398 293.521 91.1073 291.041L158.042 252.142C160.162 250.91 161.223 249.297 161.228 247.682L161.248 240.338C161.242 241.952 160.181 243.564 158.062 244.797Z" fill="url(#paint2_linear_2545_6875)"/>
<path d="M158.005 235.812C162.3 238.293 162.322 242.316 158.055 244.796L91.12 283.695C86.8526 286.175 79.9061 286.175 75.6105 283.695L8.24009 244.796C3.94457 242.316 3.92261 238.293 8.19007 235.812L75.125 196.915C79.3925 194.435 86.339 194.435 90.6345 196.915L158.005 235.812Z" fill="#A4D4ED"/>
<path d="M158.062 225.089L91.1268 263.986C86.8593 266.467 79.9128 266.467 75.6173 263.986L8.24562 225.089C6.08505 223.841 5.00538 222.202 5.00904 220.566L4.9883 227.911C4.98342 229.547 6.06309 231.186 8.22488 232.434L75.5978 271.332C79.8933 273.812 86.8398 273.812 91.1073 271.332L158.042 232.433C160.162 231.201 161.223 229.588 161.228 227.973L161.248 220.629C161.242 222.244 160.181 223.857 158.062 225.089Z" fill="url(#paint3_linear_2545_6875)"/>
<path d="M158.005 216.105C162.3 218.585 162.322 222.608 158.055 225.088L91.12 263.986C86.8526 266.466 79.9061 266.466 75.6105 263.986L8.24009 225.088C3.94457 222.608 3.92261 218.585 8.19007 216.105L75.125 177.206C79.3925 174.726 86.339 174.726 90.6345 177.206L158.005 216.105Z" fill="#A4D4ED"/>
<path d="M48.2791 253.296C47.9095 253.083 47.6094 252.509 47.6094 252.016C47.6094 251.523 47.9095 251.296 48.2791 251.51C48.6488 251.723 48.9489 252.297 48.9489 252.79C48.9489 253.283 48.6488 253.51 48.2791 253.296Z" fill="#27A9E1"/>
<path d="M54.9432 257.142C54.5735 256.928 54.2734 256.355 54.2734 255.862C54.2734 255.368 54.5735 255.142 54.9432 255.356C55.3128 255.569 55.613 256.143 55.613 256.636C55.613 257.128 55.3128 257.355 54.9432 257.142Z" fill="#27A9E1"/>
<path d="M61.5955 260.987C61.2259 260.774 60.9258 260.201 60.9258 259.708C60.9258 259.215 61.2259 258.988 61.5955 259.201C61.9652 259.415 62.2653 259.988 62.2653 260.481C62.2653 260.975 61.9664 261.201 61.5955 260.987Z" fill="#27A9E1"/>
<path d="M68.2674 264.831C67.8978 264.618 67.5977 264.044 67.5977 263.551C67.5977 263.059 67.8978 262.832 68.2674 263.045C68.6371 263.259 68.9372 263.832 68.9372 264.325C68.9372 264.818 68.6371 265.045 68.2674 264.831Z" fill="#27A9E1"/>
<path d="M121.211 249.957C121.211 249.455 121.564 248.843 121.999 248.592C122.435 248.341 122.787 248.544 122.787 249.047C122.787 249.55 122.435 250.161 121.999 250.412C121.564 250.664 121.211 250.46 121.211 249.957Z" fill="#F06466"/>
<path d="M129.164 245.359C129.164 244.857 129.517 244.246 129.952 243.994C130.388 243.743 130.74 243.947 130.74 244.449C130.74 244.952 130.388 245.563 129.952 245.815C129.517 246.066 129.164 245.862 129.164 245.359Z" fill="#F06466"/>
<path d="M137.52 240.543C137.52 240.04 137.872 239.429 138.308 239.178C138.743 238.927 139.096 239.13 139.096 239.633C139.096 240.136 138.743 240.747 138.308 240.998C137.872 241.249 137.52 241.046 137.52 240.543Z" fill="#F06466"/>
<path d="M145.477 235.945C145.477 235.443 145.829 234.832 146.265 234.58C146.7 234.329 147.053 234.533 147.053 235.035C147.053 235.538 146.7 236.149 146.265 236.4C145.829 236.652 145.477 236.448 145.477 235.945Z" fill="#F06466"/>
<path d="M48.2674 272.429C47.8978 272.215 47.5977 271.642 47.5977 271.149C47.5977 270.656 47.8978 270.429 48.2674 270.643C48.6371 270.856 48.9372 271.43 48.9372 271.923C48.9372 272.415 48.6371 272.642 48.2674 272.429Z" fill="#27A9E1"/>
<path d="M54.9315 276.275C54.5618 276.061 54.2617 275.488 54.2617 274.995C54.2617 274.502 54.5618 274.275 54.9315 274.489C55.3011 274.702 55.6012 275.275 55.6012 275.768C55.6012 276.261 55.3011 276.488 54.9315 276.275Z" fill="#27A9E1"/>
<path d="M61.5838 280.12C61.2142 279.907 60.9141 279.334 60.9141 278.841C60.9141 278.347 61.2142 278.121 61.5838 278.334C61.9535 278.548 62.2536 279.121 62.2536 279.614C62.2536 280.107 61.9547 280.334 61.5838 280.12Z" fill="#27A9E1"/>
<path d="M68.2557 283.964C67.8861 283.75 67.5859 283.177 67.5859 282.684C67.5859 282.191 67.8861 281.964 68.2557 282.178C68.6254 282.391 68.9255 282.965 68.9255 283.458C68.9255 283.951 68.6254 284.177 68.2557 283.964Z" fill="#27A9E1"/>
<path d="M325.642 386.579C330.212 389.218 330.236 393.498 325.696 396.137L254.474 437.527C249.933 440.166 242.541 440.166 237.971 437.527L166.283 396.138C161.713 393.5 161.689 389.219 166.23 386.58L237.451 345.19C241.992 342.551 249.384 342.551 253.954 345.19L325.642 386.579Z" fill="#4D4C7B"/>
<path d="M320.899 384.901L253.964 423.798C249.696 426.278 242.75 426.278 238.454 423.798L171.082 384.901C168.921 383.653 167.841 382.014 167.845 380.377L167.824 387.721C167.819 389.357 168.899 390.997 171.061 392.244L238.434 431.141C242.729 433.621 249.676 433.621 253.943 431.141L320.878 392.242C322.998 391.01 324.059 389.397 324.063 387.782L324.084 380.438C324.081 382.056 323.019 383.668 320.899 384.901Z" fill="url(#paint4_linear_2545_6875)"/>
<path d="M320.842 375.916C325.137 378.395 325.159 382.42 320.893 384.9L253.958 423.797C249.691 426.278 242.744 426.278 238.448 423.797L171.076 384.9C166.781 382.42 166.758 378.396 171.026 375.916L237.96 337.018C242.228 334.538 249.174 334.538 253.47 337.018L320.842 375.916Z" fill="#A4D4ED"/>
<path d="M206.928 410.362C206.558 410.149 206.258 409.576 206.258 409.083C206.258 408.59 206.558 408.363 206.928 408.576C207.297 408.79 207.597 409.363 207.597 409.856C207.597 410.349 207.297 410.576 206.928 410.362Z" fill="#27A9E1"/>
<path d="M213.592 414.208C213.222 413.995 212.922 413.421 212.922 412.929C212.922 412.434 213.222 412.209 213.592 412.422C213.961 412.636 214.261 413.209 214.261 413.702C214.261 414.195 213.961 414.422 213.592 414.208Z" fill="#27A9E1"/>
<path d="M220.244 418.054C219.874 417.84 219.574 417.267 219.574 416.774C219.574 416.281 219.874 416.054 220.244 416.268C220.614 416.481 220.914 417.055 220.914 417.548C220.914 418.04 220.615 418.267 220.244 418.054Z" fill="#27A9E1"/>
<path d="M226.916 421.898C226.546 421.684 226.246 421.111 226.246 420.618C226.246 420.125 226.546 419.898 226.916 420.112C227.286 420.325 227.586 420.898 227.586 421.391C227.586 421.884 227.286 422.111 226.916 421.898Z" fill="#27A9E1"/>
<path d="M292.922 405.602C292.922 405.099 293.274 404.488 293.71 404.237C294.146 403.985 294.498 404.189 294.498 404.692C294.498 405.194 294.146 405.805 293.71 406.057C293.276 406.308 292.922 406.104 292.922 405.602Z" fill="#F06466"/>
<path d="M300.875 401.004C300.875 400.501 301.228 399.89 301.663 399.639C302.099 399.388 302.451 399.591 302.451 400.094C302.451 400.597 302.099 401.208 301.663 401.459C301.228 401.71 300.875 401.507 300.875 401.004Z" fill="#F06466"/>
<path d="M309.23 396.188C309.23 395.685 309.583 395.074 310.019 394.822C310.454 394.571 310.807 394.775 310.807 395.278C310.807 395.78 310.454 396.391 310.019 396.643C309.583 396.894 309.23 396.69 309.23 396.188Z" fill="#F06466"/>
<path d="M317.188 391.59C317.188 391.087 317.54 390.476 317.976 390.225C318.411 389.974 318.764 390.177 318.764 390.68C318.764 391.182 318.411 391.794 317.976 392.045C317.54 392.296 317.188 392.093 317.188 391.59Z" fill="#F06466"/>
<path d="M486.564 284.104C491.134 286.743 491.158 291.024 486.617 293.663L415.396 335.053C410.855 337.691 403.463 337.691 398.893 335.053L327.205 293.664C322.635 291.025 322.611 286.744 327.151 284.105L398.373 242.715C402.914 240.077 410.306 240.077 414.876 242.715L486.564 284.104Z" fill="#4D4C7B"/>
<path d="M481.82 282.716L414.885 321.613C410.617 324.094 403.671 324.094 399.376 321.613L332.003 282.716C329.842 281.468 328.763 279.829 328.767 278.193L328.746 285.538C328.741 287.174 329.821 288.813 331.983 290.06L399.356 328.958C403.651 331.438 410.598 331.438 414.865 328.958L481.8 290.059C483.92 288.827 484.98 287.214 484.985 285.599L485.006 278.254C485 279.871 483.939 281.485 481.82 282.716Z" fill="url(#paint5_linear_2545_6875)"/>
<path d="M481.765 273.732C486.059 276.212 486.083 280.236 481.815 282.716L414.88 321.614C410.613 324.094 403.666 324.094 399.371 321.614L331.998 282.716C327.702 280.236 327.68 276.212 331.948 273.732L398.883 234.835C403.15 232.355 410.097 232.355 414.392 234.835L481.765 273.732Z" fill="#A4D4ED"/>
<path d="M451.516 305C451.516 304.497 451.868 303.886 452.304 303.635C452.739 303.384 453.092 303.587 453.092 304.09C453.092 304.593 452.739 305.204 452.304 305.455C451.868 305.707 451.516 305.503 451.516 305Z" fill="#F06466"/>
<path d="M459.469 300.404C459.469 299.902 459.821 299.291 460.257 299.039C460.692 298.788 461.045 298.992 461.045 299.494C461.045 299.997 460.692 300.608 460.257 300.859C459.821 301.111 459.469 300.907 459.469 300.404Z" fill="#F06466"/>
<path d="M467.824 295.588C467.824 295.085 468.177 294.474 468.612 294.223C469.048 293.972 469.4 294.175 469.4 294.678C469.4 295.181 469.048 295.792 468.612 296.043C468.177 296.294 467.824 296.091 467.824 295.588Z" fill="#F06466"/>
<path d="M475.781 290.99C475.781 290.488 476.134 289.877 476.569 289.625C477.005 289.374 477.357 289.578 477.357 290.08C477.357 290.583 477.005 291.194 476.569 291.445C476.135 291.697 475.781 291.493 475.781 290.99Z" fill="#F06466"/>
<path d="M481.816 263.006L414.881 301.904C410.613 304.384 403.667 304.384 399.372 301.904L332 263.006C329.838 261.758 328.759 260.12 328.763 258.482L328.742 265.827C328.737 267.463 329.817 269.102 331.979 270.349L399.352 309.247C403.647 311.726 410.594 311.726 414.861 309.247L481.796 270.348C483.916 269.116 484.977 267.503 484.981 265.888L485.002 258.543C484.996 260.161 483.935 261.774 481.816 263.006Z" fill="url(#paint6_linear_2545_6875)"/>
<path d="M481.761 254.023C486.056 256.504 486.079 260.527 481.811 263.007L414.876 301.905C410.609 304.385 403.662 304.385 399.367 301.905L331.994 263.007C327.698 260.527 327.677 256.504 331.944 254.023L398.879 215.126C403.146 212.646 410.093 212.646 414.388 215.126L481.761 254.023Z" fill="#A4D4ED"/>
<path d="M481.816 243.298L414.881 282.195C410.613 284.676 403.667 284.676 399.372 282.195L332 243.298C329.838 242.05 328.759 240.411 328.763 238.775L328.742 246.12C328.737 247.756 329.817 249.395 331.979 250.642L399.352 289.54C403.647 292.02 410.594 292.02 414.861 289.54L481.796 250.641C483.916 249.409 484.977 247.796 484.981 246.181L485.002 238.836C484.996 240.453 483.935 242.066 481.816 243.298Z" fill="url(#paint7_linear_2545_6875)"/>
<path d="M481.761 234.314C486.056 236.795 486.079 240.818 481.811 243.298L414.876 282.197C410.609 284.677 403.662 284.677 399.367 282.197L331.994 243.299C327.698 240.819 327.677 236.796 331.944 234.316L398.879 195.417C403.146 192.937 410.093 192.937 414.388 195.417L481.761 234.314Z" fill="#A4D4ED"/>
<path d="M421.098 282.619C421.098 282.117 421.45 281.505 421.886 281.254C422.321 281.003 422.674 281.207 422.674 281.709C422.674 282.212 422.321 282.823 421.886 283.074C421.45 283.326 421.098 283.122 421.098 282.619Z" fill="#F06466"/>
<path d="M429.051 278.024C429.051 277.521 429.403 276.91 429.839 276.658C430.274 276.407 430.627 276.611 430.627 277.113C430.627 277.616 430.274 278.227 429.839 278.479C429.403 278.73 429.051 278.526 429.051 278.024Z" fill="#F06466"/>
<path d="M437.406 273.207C437.406 272.705 437.759 272.093 438.194 271.842C438.63 271.591 438.982 271.794 438.982 272.297C438.982 272.8 438.63 273.411 438.194 273.662C437.759 273.914 437.406 273.71 437.406 273.207Z" fill="#F06466"/>
<path d="M445.363 268.609C445.363 268.107 445.716 267.496 446.151 267.244C446.587 266.993 446.939 267.197 446.939 267.699C446.939 268.202 446.587 268.813 446.151 269.065C445.717 269.316 445.363 269.112 445.363 268.609Z" fill="#F06466"/>
<path d="M481.816 243.298L414.881 282.195C410.613 284.676 403.667 284.676 399.372 282.195L332 243.298C329.838 242.05 328.759 240.411 328.763 238.775L328.742 246.12C328.737 247.756 329.817 249.395 331.979 250.642L399.352 289.54C403.647 292.02 410.594 292.02 414.861 289.54L481.796 250.641C483.916 249.409 484.977 247.796 484.981 246.181L485.002 238.836C484.996 240.453 483.935 242.066 481.816 243.298Z" fill="url(#paint8_linear_2545_6875)"/>
<path d="M481.761 234.314C486.056 236.795 486.079 240.818 481.811 243.298L414.876 282.197C410.609 284.677 403.662 284.677 399.367 282.197L331.994 243.299C327.698 240.819 327.677 236.796 331.944 234.316L398.879 195.417C403.146 192.937 410.093 192.937 414.388 195.417L481.761 234.314Z" fill="#A4D4ED"/>
<path opacity="0.72" d="M421.758 237.914C422.612 238.406 422.617 239.207 421.768 239.7L408.46 247.433C407.612 247.926 406.23 247.926 405.377 247.433L391.983 239.7C391.129 239.207 391.125 238.406 391.974 237.914L405.281 230.18C406.129 229.687 407.51 229.687 408.364 230.18L421.758 237.914Z" fill="url(#paint9_linear_2545_6875)"/>
<path d="M421.098 282.619C421.098 282.117 421.45 281.505 421.886 281.254C422.321 281.003 422.674 281.207 422.674 281.709C422.674 282.212 422.321 282.823 421.886 283.074C421.45 283.326 421.098 283.122 421.098 282.619Z" fill="#F06466"/>
<path d="M429.051 278.024C429.051 277.521 429.403 276.91 429.839 276.658C430.274 276.407 430.627 276.611 430.627 277.113C430.627 277.616 430.274 278.227 429.839 278.479C429.403 278.73 429.051 278.526 429.051 278.024Z" fill="#F06466"/>
<path d="M437.406 273.207C437.406 272.705 437.759 272.093 438.194 271.842C438.63 271.591 438.982 271.794 438.982 272.297C438.982 272.8 438.63 273.411 438.194 273.662C437.759 273.914 437.406 273.71 437.406 273.207Z" fill="#F06466"/>
<path d="M445.363 268.609C445.363 268.107 445.716 267.496 446.151 267.244C446.587 266.993 446.939 267.197 446.939 267.699C446.939 268.202 446.587 268.813 446.151 269.065C445.717 269.316 445.363 269.112 445.363 268.609Z" fill="#F06466"/>
<path d="M365.158 267.341C364.788 267.128 364.488 266.554 364.488 266.061C364.488 265.567 364.788 265.342 365.158 265.555C365.528 265.769 365.828 266.342 365.828 266.835C365.828 267.329 365.528 267.555 365.158 267.341Z" fill="#27A9E1"/>
<path d="M371.822 271.187C371.452 270.973 371.152 270.4 371.152 269.907C371.152 269.414 371.452 269.187 371.822 269.401C372.192 269.614 372.492 270.188 372.492 270.68C372.492 271.173 372.192 271.4 371.822 271.187Z" fill="#27A9E1"/>
<path d="M378.474 275.032C378.105 274.819 377.805 274.245 377.805 273.753C377.805 273.26 378.105 273.033 378.474 273.246C378.844 273.46 379.144 274.033 379.144 274.526C379.144 275.019 378.844 275.247 378.474 275.032Z" fill="#27A9E1"/>
<path d="M385.139 278.878C384.769 278.665 384.469 278.091 384.469 277.598C384.469 277.104 384.769 276.879 385.139 277.092C385.508 277.306 385.808 277.879 385.808 278.372C385.808 278.865 385.509 279.092 385.139 278.878Z" fill="#27A9E1"/>
<path d="M365.158 286.525C364.788 286.311 364.488 285.738 364.488 285.245C364.488 284.751 364.788 284.525 365.158 284.739C365.528 284.952 365.828 285.526 365.828 286.018C365.828 286.511 365.528 286.738 365.158 286.525Z" fill="#27A9E1"/>
<path d="M371.822 290.37C371.452 290.157 371.152 289.583 371.152 289.091C371.152 288.598 371.452 288.371 371.822 288.584C372.192 288.798 372.492 289.371 372.492 289.864C372.492 290.357 372.192 290.584 371.822 290.37Z" fill="#27A9E1"/>
<path d="M378.474 294.216C378.105 294.002 377.805 293.429 377.805 292.936C377.805 292.443 378.105 292.216 378.474 292.43C378.844 292.643 379.144 293.217 379.144 293.71C379.144 294.204 378.844 294.431 378.474 294.216Z" fill="#27A9E1"/>
<path d="M385.139 298.062C384.769 297.848 384.469 297.275 384.469 296.782C384.469 296.289 384.769 296.062 385.139 296.276C385.508 296.489 385.808 297.063 385.808 297.555C385.808 298.049 385.509 298.276 385.139 298.062Z" fill="#27A9E1"/>
<path d="M325.642 189.055C330.212 191.694 330.236 195.976 325.696 198.614L254.474 240.004C249.933 242.643 242.541 242.643 237.971 240.004L166.283 198.615C161.713 195.976 161.689 191.694 166.23 189.057L237.451 147.667C241.992 145.028 249.384 145.028 253.954 147.667L325.642 189.055Z" fill="#4D4C7B"/>
<path d="M320.899 188.307L253.964 227.204C249.696 229.685 242.75 229.685 238.454 227.204L171.082 188.307C168.921 187.059 167.841 185.42 167.845 183.783L167.824 191.127C167.819 192.763 168.899 194.403 171.061 195.65L238.434 234.547C242.729 237.028 249.676 237.028 253.943 234.547L320.878 195.649C322.998 194.416 324.059 192.804 324.063 191.188L324.084 183.844C324.081 185.462 323.019 187.075 320.899 188.307Z" fill="url(#paint10_linear_2545_6875)"/>
<path d="M320.842 179.322C325.137 181.802 325.159 185.826 320.893 188.306L253.958 227.204C249.691 229.684 242.744 229.684 238.448 227.204L171.076 188.306C166.781 185.826 166.758 181.802 171.026 179.322L237.96 140.425C242.228 137.944 249.174 137.944 253.47 140.425L320.842 179.322Z" fill="#A4D4ED"/>
<path d="M320.895 168.599L253.96 207.496C249.693 209.976 242.746 209.976 238.451 207.496L171.078 168.599C168.917 167.351 167.837 165.712 167.841 164.076L167.82 171.42C167.815 173.056 168.895 174.696 171.057 175.944L238.43 214.842C242.725 217.322 249.672 217.322 253.939 214.842L320.874 175.943C322.995 174.711 324.055 173.098 324.06 171.483L324.08 164.138C324.077 165.754 323.015 167.366 320.895 168.599Z" fill="url(#paint11_linear_2545_6875)"/>
<path d="M320.838 159.614C325.133 162.094 325.155 166.118 320.889 168.598L253.954 207.497C249.687 209.977 242.74 209.977 238.445 207.497L171.072 168.599C166.777 166.119 166.754 162.095 171.022 159.615L237.957 120.718C242.224 118.237 249.171 118.237 253.466 120.718L320.838 159.614Z" fill="#A4D4ED"/>
<path d="M283.061 294.312C283.092 282.699 266.505 273.239 246.012 273.184C225.519 273.128 208.881 282.498 208.85 294.112C208.818 305.726 225.406 315.185 245.898 315.241C266.391 315.296 283.029 305.926 283.061 294.312Z" fill="#1A1885"/>
<path d="M269.135 269.945C282.019 277.223 282.086 289.018 269.287 296.296C256.487 303.575 235.673 303.575 222.79 296.296C209.906 289.018 209.837 277.223 222.639 269.945C235.438 262.667 256.251 262.667 269.135 269.945Z" fill="#F4D0B1"/>
<path d="M275.176 266.117L275.105 290.979C275.117 286.62 272.248 282.255 266.502 278.938C255.075 272.34 236.55 272.34 225.206 278.933C219.566 282.21 216.743 286.507 216.73 290.812L216.801 265.95C216.813 261.646 219.636 257.349 225.276 254.071C236.621 247.478 255.145 247.478 266.571 254.076C272.318 257.393 275.188 261.758 275.176 266.117Z" fill="url(#paint12_linear_2545_6875)"/>
<path d="M278.842 266.127L278.771 290.989C278.758 295.832 275.582 300.668 269.24 304.355C256.472 311.775 235.617 311.775 222.766 304.355C216.299 300.621 213.069 295.707 213.082 290.801L213.153 265.939C213.139 270.846 216.369 275.759 222.837 279.493C235.689 286.913 256.542 286.913 269.311 279.493C275.653 275.807 278.829 270.971 278.842 266.127Z" fill="url(#paint13_linear_2545_6875)"/>
<path d="M269.146 252.573C281.999 259.993 282.067 272.072 269.298 279.493C256.53 286.912 235.675 286.914 222.824 279.493C209.972 272.073 209.905 259.994 222.673 252.573C235.441 245.153 256.295 245.153 269.146 252.573ZM225.402 277.996C236.821 284.588 255.345 284.588 266.698 277.991C278.042 271.398 277.981 260.668 266.563 254.076C255.136 247.478 236.611 247.478 225.268 254.071C213.915 260.668 213.975 271.398 225.402 277.996Z" fill="#FFD0A8"/>
<path opacity="0.72" d="M270.983 156.98L270.704 255.394C270.694 259.06 268.284 262.72 263.473 265.516C253.781 271.149 238.019 271.149 228.264 265.516C223.355 262.682 220.903 258.963 220.914 255.248L221.193 156.834C221.182 160.548 223.635 164.267 228.544 167.102C238.3 172.735 254.061 172.735 263.752 167.102C268.564 164.306 270.973 160.646 270.983 156.98Z" fill="url(#paint14_linear_2545_6875)"/>
<path opacity="0.4" d="M263.634 146.71C273.39 152.343 273.441 161.472 263.754 167.102C254.062 172.735 238.3 172.735 228.545 167.102C218.79 161.469 218.739 152.34 228.43 146.708C238.117 141.079 253.878 141.079 263.634 146.71Z" fill="url(#paint15_linear_2545_6875)"/>
<path opacity="0.4" d="M263.634 135.652C273.39 141.285 273.441 150.414 263.754 156.044C254.062 161.677 238.3 161.677 228.545 156.044C218.79 150.412 218.739 141.283 228.43 135.65C238.117 130.02 253.878 130.02 263.634 135.652Z" fill="url(#paint16_linear_2545_6875)"/>
<path opacity="0.4" d="M263.634 4.52554C273.39 10.1581 273.441 19.2872 263.754 24.9174C254.062 30.55 238.3 30.55 228.545 24.9174C218.79 19.2848 218.739 10.1557 228.43 4.5231C238.117 -1.10706 253.878 -1.10707 263.634 4.52554Z" fill="url(#paint17_linear_2545_6875)"/>
<path opacity="0.4" d="M254.296 36.8818C258.858 39.5158 258.882 43.7844 254.352 46.4159C249.82 49.0498 242.452 49.0498 237.89 46.4159C233.329 43.782 233.304 39.5133 237.836 36.8806C242.365 34.2479 249.735 34.2479 254.296 36.8818Z" fill="url(#paint18_linear_2545_6875)"/>
<path d="M245.756 124.842L258.127 117.652L258.087 132.085L245.715 139.274L245.756 124.842Z" fill="url(#paint19_linear_2545_6875)"/>
<path d="M233.199 117.592L245.57 110.402L258.126 117.653L245.755 124.842L233.199 117.592Z" fill="url(#paint20_linear_2545_6875)"/>
<path d="M245.754 124.842L245.712 139.274L233.156 132.025L233.198 117.592L245.754 124.842Z" fill="url(#paint21_linear_2545_6875)"/>
<path d="M325.4 37.4666L337.771 30.2773L337.73 59.148L325.359 66.3385L325.4 37.4666Z" fill="url(#paint22_linear_2545_6875)"/>
<path d="M312.844 30.2166L325.215 23.0273L337.771 30.2764L325.4 37.4657L312.844 30.2166Z" fill="url(#paint23_linear_2545_6875)"/>
<path d="M325.397 37.4659L325.357 66.3377L312.801 59.0874L312.841 30.2168L325.397 37.4659Z" fill="url(#paint24_linear_2545_6875)"/>
<path d="M291.613 71.477L319.116 55.4941" stroke="#F06466" stroke-width="2" stroke-miterlimit="10" stroke-linecap="round" stroke-linejoin="round"/>
<path d="M285.409 75.2862L297.779 68.0957L297.739 82.5292L285.367 89.7185L285.409 75.2862Z" fill="url(#paint25_linear_2545_6875)"/>
<path d="M272.852 68.035L285.222 60.8457L297.778 68.0948L285.407 75.2853L272.852 68.035Z" fill="url(#paint26_linear_2545_6875)"/>
<path d="M285.406 75.2854L285.365 89.7177L272.809 82.4686L272.85 68.0352L285.406 75.2854Z" fill="url(#paint27_linear_2545_6875)"/>
<path d="M250.988 95.1547L278.491 79.1719" stroke="#F06466" stroke-width="2" stroke-miterlimit="10" stroke-linecap="round" stroke-linejoin="round"/>
<path d="M246.044 96.8006L258.416 89.6113L258.374 104.045L246.004 111.234L246.044 96.8006Z" fill="url(#paint28_linear_2545_6875)"/>
<path d="M233.488 89.5506L245.86 82.3613L258.416 89.6104L246.044 96.7997L233.488 89.5506Z" fill="url(#paint29_linear_2545_6875)"/>
<path d="M246.042 96.7998L246.001 111.233L233.445 103.984L233.486 89.5508L246.042 96.7998Z" fill="url(#paint30_linear_2545_6875)"/>
<path d="M246.238 89.609V80.8203" stroke="#F06466" stroke-width="2" stroke-miterlimit="10" stroke-linecap="round" stroke-linejoin="round"/>
<path d="M246.357 68.5963L258.728 61.4082L258.687 75.8405L246.316 83.0297L246.357 68.5963Z" fill="url(#paint31_linear_2545_6875)"/>
<path d="M233.801 61.3475L246.173 54.1582L258.728 61.4085L246.357 68.5966L233.801 61.3475Z" fill="url(#paint32_linear_2545_6875)"/>
<path d="M246.354 68.5967L246.314 83.0302L233.758 75.7811L233.798 61.3477L246.354 68.5967Z" fill="url(#paint33_linear_2545_6875)"/>
<path d="M311.601 149.616L403.761 96.4067C404.656 95.8906 405.463 95.8418 406.046 96.181L407.767 97.1802C407.183 96.841 406.376 96.8898 405.482 97.4058L313.321 150.615C311.545 151.64 310.116 154.115 310.123 156.155L310.306 220.767C310.309 221.778 310.665 222.491 311.242 222.826L309.522 221.827C308.945 221.493 308.589 220.779 308.585 219.769L308.402 155.157C308.396 153.116 309.825 150.642 311.601 149.616Z" fill="#4D4C7B"/>
<path d="M313.324 150.616C311.548 151.64 310.119 154.116 310.125 156.155L310.308 220.768C310.314 222.799 311.751 223.627 313.528 222.602L405.688 169.393C407.464 168.369 408.893 165.885 408.887 163.853L408.704 99.2413C408.697 97.2003 407.26 96.3817 405.484 97.4065L313.324 150.616Z" fill="url(#paint34_linear_2545_6875)"/>
<path d="M327.922 154.785C326.722 155.478 325.75 157.162 325.75 158.546V170.791L330.093 168.284V156.039C330.093 154.653 329.121 154.092 327.922 154.785Z" fill="#F06466"/>
<path d="M325.75 180.002C325.75 181.386 326.722 181.948 327.922 181.256C329.121 180.563 330.093 178.879 330.093 177.495V168.285L325.75 170.792V180.002Z" fill="#F06466"/>
<path d="M335.816 152.001C334.617 152.694 333.645 154.377 333.645 155.762V166.232L337.988 162.943V152.473C337.988 151.87 337.015 151.309 335.816 152.001Z" fill="#1A1885"/>
<path d="M333.645 168.809C333.645 170.194 334.617 170.755 335.816 170.064C337.015 169.371 337.988 167.687 337.988 166.302V163.725L333.645 166.232V168.809Z" fill="#1A1885"/>
<path d="M341.543 168.453C341.543 169.838 342.515 170.399 343.715 169.707C344.914 169.014 345.886 167.331 345.886 165.946V159.164L341.543 161.671V168.453Z" fill="#F06466"/>
<path d="M343.715 143.238C342.515 143.93 341.543 145.615 341.543 146.999V161.672L345.886 159.165V144.492C345.886 143.107 344.914 142.545 343.715 143.238Z" fill="#F06466"/>
<path d="M349.445 171.001C349.445 172.386 350.418 173.729 351.617 173.037C352.816 172.344 353.788 170.661 353.788 169.276V154.604L349.445 157.111V171.001Z" fill="#1A1885"/>
<path d="M351.617 146.568C350.418 147.26 349.445 148.944 349.445 150.329V157.111L353.788 154.604V147.04C353.788 145.654 352.816 145.875 351.617 146.568Z" fill="#1A1885"/>
<path d="M357.34 163.536C357.34 164.921 358.312 165.482 359.511 164.79C360.711 164.097 361.683 162.413 361.683 161.029V150.043L357.34 152.55V163.536Z" fill="#F06466"/>
<path d="M359.511 138.32C358.312 139.013 357.34 140.696 357.34 142.081V152.551L361.683 150.044V139.574C361.683 138.189 360.712 137.628 359.511 138.32Z" fill="#F06466"/>
<path d="M365.25 155.985C365.25 157.37 366.222 157.931 367.422 157.239C368.621 156.548 369.593 154.081 369.593 152.696V145.482L365.25 147.989V155.985Z" fill="#1A1885"/>
<path d="M367.422 130.77C366.222 131.463 365.25 133.146 365.25 133.749V147.207L369.593 145.482V132.023C369.593 130.638 368.621 130.077 367.422 130.77Z" fill="#1A1885"/>
<path d="M373.133 146.842C373.133 148.227 374.105 148.788 375.304 148.095C376.504 147.402 377.476 145.719 377.476 144.334V140.922L373.133 143.429V146.842Z" fill="#F06466"/>
<path d="M375.304 123.039C374.105 123.731 373.133 125.414 373.133 126.8V143.431L377.476 140.924V124.293C377.476 122.907 376.504 122.346 375.304 123.039Z" fill="#F06466"/>
<path d="M383.207 121.65C382.007 122.342 381.035 124.026 381.035 125.411V138.871L385.378 135.582V122.122C385.379 121.518 384.407 120.957 383.207 121.65Z" fill="#1A1885"/>
<path d="M381.035 146.866C381.035 148.251 382.007 148.812 383.207 148.12C384.406 147.427 385.378 144.962 385.378 143.577V136.363L381.035 138.87V146.866Z" fill="#1A1885"/>
<path d="M393.288 125.021C393.288 123.636 392.316 123.075 391.117 123.767C389.918 124.46 388.945 126.143 388.945 127.528V134.31L393.288 131.803V125.021Z" fill="#F06466"/>
<path d="M388.945 134.31V141.092C388.945 142.476 389.918 143.037 391.117 142.346C392.316 141.654 393.288 139.969 393.288 138.585V131.803L388.945 134.31Z" fill="#F06466"/>
<path d="M396.999 130.783L322.035 174.064V172.328L396.999 129.047V130.783Z" fill="url(#paint35_linear_2545_6875)"/>
<path d="M322.035 200.148L327.923 193.061L345.892 184.53L352.686 175.813L375.314 171.009L391.111 153.629" stroke="#1A1885" stroke-width="0.6751" stroke-miterlimit="10"/>
<path d="M351.621 176.429C351.621 175.778 352.079 174.985 352.643 174.659C353.208 174.333 353.666 174.597 353.666 175.25C353.666 175.901 353.208 176.694 352.643 177.02C352.079 177.344 351.621 177.081 351.621 176.429Z" fill="#1A1885"/>
<path d="M322.035 206.784L333.649 187.983L337.992 187.541L343.72 190.429L349.447 181.814L360.652 178.442L373.142 165.182L382.065 168.881L385.383 161.95L396.999 150.229" stroke="#F06466" stroke-width="0.6751" stroke-miterlimit="10"/>
<path d="M332.629 188.574C332.629 187.922 333.086 187.129 333.651 186.804C334.216 186.478 334.674 186.741 334.674 187.394C334.674 188.046 334.216 188.839 333.651 189.164C333.086 189.49 332.629 189.225 332.629 188.574Z" fill="#1A1885"/>
<path d="M372.121 165.773C372.121 165.122 372.579 164.329 373.143 164.003C373.708 163.677 374.166 163.941 374.166 164.593C374.166 165.246 373.708 166.038 373.143 166.364C372.579 166.689 372.121 166.425 372.121 165.773Z" fill="#1A1885"/>
<path d="M381.047 169.472C381.047 168.821 381.504 168.028 382.069 167.702C382.634 167.376 383.092 167.64 383.092 168.293C383.092 168.944 382.634 169.737 382.069 170.063C381.504 170.387 381.047 170.124 381.047 169.472Z" fill="#1A1885"/>
<path d="M342.695 191.019C342.695 190.368 343.153 189.575 343.718 189.249C344.282 188.923 344.74 189.187 344.74 189.839C344.74 190.491 344.282 191.284 343.718 191.61C343.153 191.935 342.695 191.671 342.695 191.019Z" fill="#1A1885"/>
<path d="M177.548 135.961L85.388 82.7524C84.4937 82.2363 83.6861 82.1875 83.103 82.5267L81.3828 83.5259C81.966 83.1867 82.7736 83.2355 83.6678 83.7515L175.828 136.961C177.604 137.985 179.033 140.461 179.027 142.5L178.844 207.113C178.841 208.124 178.484 208.836 177.907 209.172L179.627 208.173C180.204 207.838 180.56 207.125 180.564 206.115L180.747 141.503C180.753 139.462 179.325 136.987 177.548 135.961Z" fill="#4D4C7B"/>
<path d="M175.832 136.961C177.609 137.986 179.037 140.461 179.031 142.501L178.848 207.113C178.842 209.144 177.405 209.973 175.629 208.948L83.4683 155.739C81.692 154.714 80.2635 152.23 80.2696 150.199L80.4525 85.587C80.4586 83.546 81.8958 82.7274 83.6721 83.7522L175.832 136.961Z" fill="url(#paint36_linear_2545_6875)"/>
<path d="M157.361 155.871C153.263 154.965 149.66 155.766 145.694 155.358C141.727 154.95 136.926 152.938 133.333 148.159C129.844 143.517 127.993 136.946 123.93 133.542C119.177 129.56 115.136 132.932 110.306 130.89C107.861 129.855 105.42 127.513 103.097 125.212C100.775 122.911 96.9683 118.033 94.5101 116.382C93.9696 116.02 93.4646 115.737 92.9766 115.49V148.273L166.298 190.605V160.238C163.313 158.039 160.242 156.508 157.361 155.871Z" fill="url(#paint37_linear_2545_6875)"/>
<path d="M151.582 165.868C146.717 163.964 142.653 165.594 137.853 164.109C131.888 162.263 125.725 155.949 120.275 149.579C114.824 143.21 109.403 136.255 103.313 131.997C99.7559 129.509 95.8789 128.311 92.9766 128.937V148.276L166.298 190.608V177.9C161.523 173.13 156.588 167.829 151.582 165.868Z" fill="url(#paint38_linear_2545_6875)"/>
<path d="M102.43 108.379V153.733" stroke="#F06466" stroke-width="0.3375" stroke-miterlimit="10" stroke-linecap="round" stroke-linejoin="round"/>
<path d="M113.164 114.572V159.927" stroke="#F06466" stroke-width="0.3375" stroke-miterlimit="10" stroke-linecap="round" stroke-linejoin="round"/>
<path d="M123.895 120.768V166.122" stroke="#F06466" stroke-width="0.3375" stroke-miterlimit="10" stroke-linecap="round" stroke-linejoin="round"/>
<path d="M134.621 126.963V172.318" stroke="#F06466" stroke-width="0.3375" stroke-miterlimit="10" stroke-linecap="round" stroke-linejoin="round"/>
<path d="M145.34 133.158V178.513" stroke="#F06466" stroke-width="0.3375" stroke-miterlimit="10" stroke-linecap="round" stroke-linejoin="round"/>
<path d="M156.082 139.354V184.708" stroke="#F06466" stroke-width="0.3375" stroke-miterlimit="10" stroke-linecap="round" stroke-linejoin="round"/>
<path d="M71.1914 159.646V163.137" stroke="#F4D0B1" stroke-width="2.9816" stroke-miterlimit="10" stroke-linecap="round" stroke-linejoin="round"/>
<path d="M68.0129 164.473C68.0129 164.473 62.4864 168.621 61.7276 173.084C61.0579 177.025 62.9073 179.454 67.1394 183.995" stroke="#4D4C7B" stroke-width="2.9816" stroke-miterlimit="10" stroke-linecap="round" stroke-linejoin="round"/>
<path d="M72.1529 187.228C71.7821 187.771 71.0708 187.965 70.4755 187.683L68.1344 186.578C67.1584 186.117 66.8265 184.893 67.4353 184.003C68.0441 183.112 69.3055 182.977 70.0887 183.718L71.9687 185.498C72.4457 185.952 72.525 186.685 72.1529 187.228Z" fill="#F4D0B1"/>
<path d="M72.6395 230.701C72.6395 230.701 73.8729 231.916 74.6829 231.713C75.8943 231.411 80.4912 230.107 81.9966 228.258C83.5021 226.41 81.8149 225.867 80.4473 226.203C76.6044 227.143 75.2892 227.674 73.9473 228.045C72.6895 228.393 72.1234 229.933 72.6395 230.701Z" fill="#070D30"/>
<path d="M66.096 227.072C66.096 227.072 67.3281 228.287 68.1394 228.084C69.3509 227.782 73.9477 226.478 75.4531 224.629C76.9586 222.781 75.2714 222.238 73.9038 222.574C70.0609 223.514 68.7458 224.045 67.4038 224.416C66.146 224.762 65.5811 226.304 66.096 227.072Z" fill="#070D30"/>
<path d="M74.5195 228.552L75.5711 222.035" stroke="#D6E9F4" stroke-width="2.0854" stroke-miterlimit="10" stroke-linecap="round" stroke-linejoin="round"/>
<path d="M68.1992 224.669L69.7608 218.256" stroke="#D6E9F4" stroke-width="2.0854" stroke-miterlimit="10" stroke-linecap="round" stroke-linejoin="round"/>
<path d="M66.3825 185.924C68.9591 185.893 74.5039 187.042 77.433 187.451C78.5005 189.477 78.897 191.645 78.4187 193.758C79.3484 198.765 79.2776 201.943 79.3179 207.435C79.3581 212.927 78.4871 220.242 77.3635 225.977C77.1549 227.045 76.601 227.302 75.7104 227.338C75.3603 227.351 74.8052 227.263 74.4917 227.177C73.6914 226.957 73.0619 226.495 73.2729 225.478C74.4185 219.945 75.442 212.72 75.2456 207.476C75.0492 202.233 74.8113 199.576 73.7036 194.916C73.0106 194.742 72.3226 194.525 71.6003 194.207C72.2128 198.172 72.0651 199.904 72.2225 204.425C72.3799 208.947 72.3811 217.691 71.1977 222.633C70.9245 223.775 70.2986 224.223 69.2665 224.321C69.1018 224.335 68.8542 224.322 68.7114 224.282C67.2511 223.794 67.0413 222.611 67.2511 221.462C68.1759 216.414 68.4443 209.48 68.1978 204.606C67.9514 199.732 63.9987 185.954 66.3825 185.924Z" fill="#1A1885"/>
<path d="M64.5123 186.365C64.4916 187.441 65.0162 188.449 65.9104 189.052C68.01 190.466 71.5015 192.31 73.4242 192.58C78.0796 193.24 78.4651 190.19 78.4651 190.19C78.4651 190.19 78.3309 171.931 77.6734 168.146C77.322 166.129 75.7531 165.107 74.1062 164.027C73.8988 163.891 73.7011 163.762 73.5133 163.647C72.2713 162.879 70.8476 162.415 69.3873 162.426C68.992 162.431 68.6395 162.463 68.3174 162.53C66.6704 162.836 65.9531 163.829 65.4078 164.624C65.065 165.123 64.8722 165.715 64.8624 166.324L64.5123 186.365Z" fill="#F06466"/>
<path d="M77.309 154.261C78.3643 157.283 77.4347 160.75 75.085 161.571C74.741 161.69 74.3872 161.749 74.0285 161.746C72.3621 161.75 70.609 160.53 69.5024 158.732C69.2194 158.27 68.9779 157.764 68.7924 157.235C68.7668 157.162 68.7412 157.087 68.7217 157.018C68.6716 156.859 68.6265 156.698 68.5887 156.542C68.1288 154.644 68.5448 152.903 69.5659 151.759C69.8941 151.39 70.2832 151.084 70.7249 150.853C70.8981 150.766 71.0738 150.687 71.2604 150.623C73.0757 149.988 75.0692 150.701 76.3648 152.456C76.7479 152.97 77.0687 153.574 77.309 154.261Z" fill="#F4D0B1"/>
<path d="M68.316 152.241C70.1996 146.952 75.182 149.246 76.4361 151.791C76.6752 152.276 76.4581 152.67 75.9689 152.927C75.8469 153.444 75.6187 154.048 75.1844 154.285C74.367 154.731 76.2129 155.873 75.698 156.38C75.1844 156.886 74.5671 155.811 73.9193 156.38C73.0605 157.135 75.0429 158.305 74.0438 158.824C73.0446 159.345 72.2711 161.646 69.93 161.148C67.5889 160.651 66.9313 157.65 66.7081 155.781C66.486 153.914 67.6182 152.651 68.316 152.241Z" fill="#070D30"/>
<path d="M75.7007 156.963C75.9922 157.689 75.8031 158.544 75.2383 158.771C74.6734 158.997 73.9463 158.509 73.656 157.783C73.3656 157.057 73.6206 156.369 74.1854 156.142C74.7503 155.915 75.4103 156.237 75.7007 156.963Z" fill="#F4D0B1"/>
<path d="M76.1094 168.9C76.1094 168.9 81.6895 172.975 86.1815 172.398C90.1464 171.889 91.9299 169.41 95.0372 164.037" stroke="#4D4C7B" stroke-width="2.9816" stroke-miterlimit="10" stroke-linecap="round" stroke-linejoin="round"/>
<path d="M96.6756 158.306C97.3039 158.502 97.6955 159.125 97.6016 159.777L97.2283 162.339C97.0721 163.406 95.9985 164.081 94.9689 163.759C93.9392 163.437 93.4415 162.27 93.9234 161.304L95.0774 158.986C95.369 158.397 96.0473 158.109 96.6756 158.306Z" fill="#F4D0B1"/>
<path d="M427.5 153.676V157.166" stroke="#F4D0B1" stroke-width="2.9816" stroke-miterlimit="10" stroke-linecap="round" stroke-linejoin="round"/>
<path d="M430.684 158.5C430.684 158.5 436.21 162.648 436.969 167.112C437.639 171.052 435.789 173.481 431.557 178.022" stroke="#4D4C7B" stroke-width="2.9816" stroke-miterlimit="10" stroke-linecap="round" stroke-linejoin="round"/>
<path d="M426.555 181.256C426.926 181.799 427.637 181.993 428.232 181.713L430.573 180.607C431.549 180.147 431.881 178.922 431.272 178.032C430.664 177.141 429.402 177.006 428.619 177.748L426.739 179.528C426.261 179.98 426.183 180.713 426.555 181.256Z" fill="#F4D0B1"/>
<path d="M426.053 224.73C426.053 224.73 424.821 225.945 424.01 225.743C422.798 225.44 418.201 224.136 416.696 222.288C415.191 220.439 416.879 219.896 418.245 220.232C422.088 221.173 423.403 221.703 424.745 222.074C426.003 222.422 426.568 223.963 426.053 224.73Z" fill="#070D30"/>
<path d="M432.604 221.101C432.604 221.101 431.372 222.316 430.561 222.114C429.349 221.811 424.752 220.507 423.247 218.659C421.741 216.81 423.43 216.268 424.796 216.603C428.639 217.544 429.954 218.074 431.296 218.445C432.554 218.792 433.119 220.333 432.604 221.101Z" fill="#070D30"/>
<path d="M424.173 222.582L423.121 216.064" stroke="#D6E9F4" stroke-width="2.0854" stroke-miterlimit="10" stroke-linecap="round" stroke-linejoin="round"/>
<path d="M430.49 218.699L428.93 212.285" stroke="#D6E9F4" stroke-width="2.0854" stroke-miterlimit="10" stroke-linecap="round" stroke-linejoin="round"/>
<path d="M432.327 179.954C429.751 179.922 424.206 181.071 421.276 181.48C420.208 183.506 419.812 185.675 420.29 187.787C419.36 192.794 419.431 195.972 419.392 201.464C419.352 206.957 420.223 214.272 421.346 220.007C421.555 221.074 422.109 221.332 422.999 221.367C423.35 221.38 423.905 221.292 424.218 221.206C425.018 220.986 425.648 220.524 425.437 219.508C424.291 213.974 423.268 206.749 423.464 201.507C423.661 196.264 423.899 193.606 425.006 188.946C425.699 188.773 426.388 188.556 427.109 188.237C426.497 192.202 426.645 193.935 426.487 198.456C426.329 202.977 426.329 211.722 427.512 216.664C427.785 217.806 428.411 218.254 429.443 218.35C429.608 218.365 429.857 218.351 429.998 218.311C431.459 217.823 431.67 216.641 431.459 215.492C430.534 210.443 430.266 203.509 430.512 198.635C430.76 193.761 434.712 179.983 432.327 179.954Z" fill="#1A1885"/>
<path d="M434.191 180.395C434.212 181.471 433.687 182.478 432.793 183.081C430.693 184.494 427.202 186.34 425.279 186.609C420.624 187.269 420.238 184.219 420.238 184.219C420.238 184.219 420.372 165.96 421.03 162.176C421.381 160.158 422.95 159.137 424.597 158.056C424.805 157.92 425.002 157.791 425.19 157.676C426.432 156.908 427.856 156.445 429.316 156.455C429.711 156.46 430.064 156.492 430.387 156.559C432.034 156.865 432.751 157.858 433.297 158.654C433.64 159.153 433.832 159.745 433.842 160.353L434.191 180.395Z" fill="#F06466"/>
<path d="M421.405 148.29C420.349 151.312 421.279 154.78 423.629 155.6C423.972 155.72 424.327 155.778 424.684 155.776C426.35 155.779 428.104 154.559 429.21 152.761C429.493 152.299 429.735 151.794 429.92 151.264C429.946 151.191 429.971 151.117 429.991 151.047C430.041 150.889 430.086 150.728 430.124 150.571C430.584 148.673 430.168 146.932 429.147 145.788C428.818 145.421 428.431 145.113 427.988 144.883C427.814 144.795 427.639 144.717 427.452 144.652C425.637 144.018 423.643 144.73 422.348 146.486C421.966 146.999 421.645 147.603 421.405 148.29Z" fill="#F4D0B1"/>
<path d="M430.394 146.271C428.51 140.981 423.527 143.276 422.273 145.821C422.034 146.305 422.251 146.699 422.741 146.956C422.863 147.474 423.091 148.078 423.525 148.314C424.342 148.761 422.497 149.903 423.011 150.409C423.525 150.916 424.142 149.84 424.79 150.409C425.649 151.164 423.667 152.334 424.666 152.854C425.665 153.375 426.438 155.676 428.779 155.178C431.121 154.68 431.778 151.679 432.001 149.811C432.223 147.943 431.091 146.681 430.394 146.271Z" fill="#070D30"/>
<path d="M422.998 150.992C422.708 151.718 422.896 152.573 423.461 152.8C424.026 153.027 424.753 152.538 425.043 151.812C425.333 151.086 425.079 150.398 424.514 150.171C423.949 149.944 423.289 150.266 422.998 150.992Z" fill="#F4D0B1"/>
<path d="M417.148 185.403C416.621 185.009 416.457 184.292 416.762 183.709L417.963 181.415C418.463 180.46 419.7 180.178 420.565 180.822C421.43 181.468 421.513 182.733 420.739 183.485L418.882 185.291C418.41 185.748 417.675 185.797 417.148 185.403Z" fill="#F4D0B1"/>
<path d="M423.469 161.334C423.469 161.334 417.205 164.252 415.541 168.463C414.073 172.182 415.382 174.94 418.585 180.256" stroke="#4D4C7B" stroke-width="2.9816" stroke-miterlimit="10" stroke-linecap="round" stroke-linejoin="round"/>
<path d="M106.517 200.831L111.725 197.805L111.708 203.881L106.5 206.908L106.517 200.831Z" fill="#070D30"/>
<path d="M101.234 197.779L106.444 194.752L111.73 197.804L106.522 200.831L101.234 197.779Z" fill="#1A1885"/>
<path d="M106.523 200.832L106.506 206.908L101.219 203.856L101.236 197.779L106.523 200.832Z" fill="#111057"/>
<path d="M118.419 208.423L123.627 205.396L123.61 211.473L118.402 214.5L118.419 208.423Z" fill="#070D30"/>
<path d="M113.137 205.37L118.346 202.344L123.632 205.396L118.424 208.423L113.137 205.37Z" fill="#1A1885"/>
<path d="M118.426 208.423L118.408 214.5L113.121 211.448L113.138 205.371L118.426 208.423Z" fill="#111057"/>
<path d="M131.326 215.46L136.535 212.434L136.517 218.51L131.309 221.537L131.326 215.46Z" fill="#070D30"/>
<path d="M126.043 212.408L131.252 209.381L136.54 212.433L131.33 215.46L126.043 212.408Z" fill="#1A1885"/>
<path d="M131.332 215.461L131.315 221.537L126.027 218.485L126.044 212.408L131.332 215.461Z" fill="#111057"/>
<path d="M396.429 224.808L362.287 244.65C360.521 245.676 357.652 245.676 355.876 244.65L342.785 237.092C341.891 236.576 341.445 235.899 341.447 235.223L341.434 239.935C341.431 240.611 341.879 241.288 342.772 241.804L355.861 249.361C357.637 250.387 360.507 250.387 362.272 249.361L396.414 229.52C397.289 229.011 397.728 228.345 397.729 227.676L397.743 222.965C397.743 223.633 397.303 224.301 396.429 224.808Z" fill="url(#paint39_linear_2545_6875)"/>
<path d="M396.409 221.095C398.185 222.121 398.19 223.785 396.43 224.809L362.288 244.651C360.522 245.677 357.653 245.677 355.877 244.651L342.788 237.093C341.011 236.067 341.002 234.405 342.767 233.379L376.909 213.538C378.668 212.515 381.543 212.512 383.319 213.538L396.409 221.095Z" fill="url(#paint40_linear_2545_6875)"/>
<path d="M357.976 238.751C357.445 238.445 357.445 237.948 357.976 237.642C358.507 237.336 359.367 237.336 359.898 237.642C360.428 237.948 360.428 238.445 359.898 238.751C359.367 239.058 358.507 239.058 357.976 238.751Z" fill="#1A1885"/>
<path d="M363.964 235.295C363.434 234.989 363.434 234.493 363.964 234.185C364.495 233.878 365.355 233.879 365.886 234.185C366.417 234.491 366.417 234.988 365.886 235.295C365.355 235.602 364.495 235.602 363.964 235.295Z" fill="#F4D0B1"/>
<path d="M369.941 231.838C369.41 231.532 369.41 231.035 369.941 230.728C370.472 230.421 371.332 230.421 371.862 230.728C372.393 231.034 372.393 231.53 371.862 231.838C371.332 232.144 370.472 232.144 369.941 231.838Z" fill="#1A1885"/>
<path d="M375.945 228.382C375.414 228.075 375.414 227.579 375.945 227.273C376.476 226.966 377.336 226.966 377.866 227.273C378.397 227.579 378.397 228.075 377.866 228.382C377.336 228.688 376.476 228.688 375.945 228.382Z" fill="#F06466"/>
<path d="M290.083 136.846L299.432 131.412L299.402 155.522L290.051 160.956L290.083 136.846Z" fill="#56A6C7"/>
<path d="M280.594 131.367L289.944 125.934L299.434 131.412L290.084 136.846L280.594 131.367Z" fill="#27A9E1"/>
<path d="M290.084 136.846L290.053 160.956L280.562 155.477L280.594 131.367L290.084 136.846Z" fill="#82D7FA"/>
<path d="M231.406 334.108C231.406 334.108 237.216 337.847 241.666 337.007C245.595 336.266 247.229 333.687 250.014 328.141" stroke="#4D4C7B" stroke-width="2.9816" stroke-miterlimit="10" stroke-linecap="round" stroke-linejoin="round"/>
<path d="M251.303 322.321C251.941 322.481 252.369 323.08 252.313 323.736L252.091 326.316C251.998 327.391 250.966 328.128 249.92 327.867C248.873 327.606 248.308 326.47 248.731 325.478L249.746 323.097C250.004 322.491 250.664 322.162 251.303 322.321Z" fill="#F4D0B1"/>
<path d="M223.075 397.239C223.075 397.239 222.488 398.876 223.044 399.519C223.875 400.48 227.174 404.062 229.592 404.62C232.009 405.177 231.757 403.422 230.828 402.335C228.21 399.276 227.118 398.32 226.164 397.269C225.268 396.286 223.564 396.442 223.075 397.239Z" fill="#070D30"/>
<path d="M224.918 397.546L225.206 390.951" stroke="#D6E9F4" stroke-width="2.1297" stroke-miterlimit="10" stroke-linecap="round" stroke-linejoin="round"/>
<path d="M231.069 394.913C231.069 394.913 230.448 396.674 231.183 396.935C232.281 397.325 236.737 398.227 239.298 398.13C241.571 398.045 240.483 396.194 239.249 395.749C235.777 394.495 234.474 394.227 233.239 393.822C232.08 393.442 231.1 394.057 231.069 394.913Z" fill="#070D30"/>
<path d="M232.5 393.717L232.744 387.119" stroke="#D6E9F4" stroke-width="2.1297" stroke-miterlimit="10" stroke-linecap="round" stroke-linejoin="round"/>
<path d="M234.807 360.633C234.939 360.43 235.019 360.232 235.03 360.038C235.135 358.292 235.617 354.794 234.437 354.439C233.258 354.085 222.598 357.592 222.598 357.592C222.598 357.592 221.193 361.56 222.901 364.031L223.86 377.661L222.944 395.326C222.901 396.149 223.533 396.85 224.356 396.893L225.646 396.96C226.469 397.003 227.17 396.371 227.213 395.548L228.142 377.623V364.661C228.75 364.365 229.469 364.028 230.209 363.667L231.479 374.248L230.58 391.588C230.529 392.59 231.298 393.444 232.3 393.497L232.942 393.529C233.943 393.582 234.797 392.811 234.85 391.809L235.762 374.209L234.807 360.633Z" fill="#1A1885"/>
<path d="M235.222 355.35C235.243 356.426 234.718 357.434 233.824 358.036C231.725 359.45 228.233 361.295 226.31 361.564C221.655 362.224 221.27 359.174 221.27 359.174C221.27 359.174 221.404 340.915 222.061 337.131C222.413 335.113 223.982 334.092 225.628 333.011C225.836 332.876 226.034 332.746 226.221 332.632C227.463 331.863 228.887 331.399 230.347 331.41C230.743 331.415 231.095 331.447 231.417 331.514C233.064 331.82 233.782 332.813 234.327 333.608C234.67 334.106 234.862 334.699 234.872 335.307L235.222 355.35Z" fill="#F06466"/>
<path d="M226.32 331.844C226.32 331.844 226.32 331.411 228.399 331.184L228.553 333.269L226.484 333.003L226.32 331.844Z" fill="#98E1ED"/>
<path d="M228.559 328.631V332.12" stroke="#F4D0B1" stroke-width="2.9816" stroke-miterlimit="10" stroke-linecap="round" stroke-linejoin="round"/>
<path d="M226.332 331.844L226.137 333.685C226.137 333.685 226.949 335.504 227.403 336.153L229.287 333.522C229.287 333.522 228.216 333.348 226.332 331.844Z" fill="#4D4C7B"/>
<path d="M230.452 332.363C230.452 332.363 230.041 333.272 229.164 333.521L231.372 334.787C231.372 334.787 231.297 332.514 230.993 331.691C230.993 331.691 230.734 331.41 230.452 332.363Z" fill="#4D4C7B"/>
<path d="M286.712 374.762L299.084 367.572L299.042 382.006L286.672 389.195L286.712 374.762Z" fill="url(#paint41_linear_2545_6875)"/>
<path d="M274.148 367.512L286.519 360.322L299.076 367.571L286.704 374.761L274.148 367.512Z" fill="url(#paint42_linear_2545_6875)"/>
<path d="M286.703 374.761L286.663 389.194L274.105 381.944L274.147 367.512L286.703 374.761Z" fill="url(#paint43_linear_2545_6875)"/>
<path d="M252.906 394.332L280.409 378.35" stroke="#F06466" stroke-width="2" stroke-miterlimit="10" stroke-linecap="round" stroke-linejoin="round"/>
<path d="M246.693 398.142L259.064 390.953L259.023 405.385L246.652 412.575L246.693 398.142Z" fill="url(#paint44_linear_2545_6875)"/>
<path d="M234.137 390.892L246.508 383.703L259.064 390.952L246.693 398.141L234.137 390.892Z" fill="url(#paint45_linear_2545_6875)"/>
<path d="M246.69 398.142L246.65 412.574L234.094 405.325L234.134 390.893L246.69 398.142Z" fill="url(#paint46_linear_2545_6875)"/>
<path d="M247.172 390.953V354.121" stroke="#F06466" stroke-width="2" stroke-miterlimit="10" stroke-linecap="round" stroke-linejoin="round"/>
<path d="M247.295 341.898L259.666 334.709L259.626 349.141L247.254 356.331L247.295 341.898Z" fill="url(#paint47_linear_2545_6875)"/>
<path d="M234.738 334.647L247.109 327.459L259.665 334.708L247.294 341.897L234.738 334.647Z" fill="url(#paint48_linear_2545_6875)"/>
<path d="M247.293 341.897L247.251 356.329L234.695 349.08L234.737 334.646L247.293 341.897Z" fill="url(#paint49_linear_2545_6875)"/>
<path d="M247.212 330.818L252.422 327.791L252.405 333.868L247.195 336.896L247.212 330.818Z" fill="#070D30"/>
<path d="M241.93 327.765L247.139 324.738L252.426 327.791L247.217 330.817L241.93 327.765Z" fill="#1A1885"/>
<path d="M247.219 330.818L247.201 336.896L241.914 333.844L241.931 327.766L247.219 330.818Z" fill="#111057"/>
<path d="M233.793 323.995C234.838 327.02 233.896 330.485 231.543 331.298C231.199 331.416 230.845 331.473 230.486 331.47C228.82 331.468 227.072 330.241 225.97 328.439C225.69 327.976 225.448 327.471 225.265 326.94C225.239 326.867 225.214 326.792 225.195 326.723C225.147 326.564 225.102 326.403 225.064 326.246C224.611 324.346 225.032 322.607 226.057 321.466C226.386 321.099 226.775 320.794 227.218 320.564C227.391 320.477 227.568 320.4 227.755 320.335C229.573 319.707 231.564 320.427 232.853 322.186C233.236 322.703 233.556 323.307 233.793 323.995Z" fill="#F4D0B1"/>
<path d="M232.938 321.523C231.694 318.974 226.718 316.662 224.816 321.945C224.816 321.945 221.965 324.662 225.265 326.939C225.265 326.939 226.053 328.711 226.846 327.819C227.636 326.927 226.074 324.787 226.088 324.232C226.093 324.013 226.25 323.649 226.573 323.322C226.915 323.619 227.502 323.924 228.534 324.031C229.753 324.157 229.895 323.484 229.729 322.829C231.868 323.239 233.457 322.586 232.938 321.523Z" fill="#070D30"/>
<path d="M226.096 326.75C226.649 327.302 226.814 328.163 226.384 328.593C225.954 329.024 225.093 328.862 224.539 328.309C223.985 327.756 223.948 327.023 224.378 326.592C224.809 326.162 225.542 326.197 226.096 326.75Z" fill="#F4D0B1"/>
<path d="M223.377 338.287C223.377 338.287 222.817 345.174 225.655 348.703C228.16 351.818 231.204 352.045 237.409 351.887" stroke="#4D4C7B" stroke-width="2.9816" stroke-miterlimit="10" stroke-linecap="round" stroke-linejoin="round"/>
<path d="M243.143 350.282C243.304 350.92 242.976 351.58 242.372 351.84L239.992 352.86C239 353.285 237.864 352.722 237.601 351.676C237.337 350.629 238.073 349.596 239.148 349.502L241.727 349.275C242.383 349.217 242.983 349.644 243.143 350.282Z" fill="#F4D0B1"/>
<defs>
<linearGradient id="paint0_linear_2545_6875" x1="4.98439" y1="306.005" x2="161.243" y2="306.005" gradientUnits="userSpaceOnUse">
<stop stop-color="#66D2FE"/>
<stop offset="0.3365" stop-color="#52A7DE"/>
<stop offset="0.7813" stop-color="#3974B7"/>
<stop offset="1" stop-color="#3060A8"/>
</linearGradient>
<linearGradient id="paint1_linear_2545_6875" x1="4.9883" y1="286.295" x2="161.247" y2="286.295" gradientUnits="userSpaceOnUse">
<stop stop-color="#66D2FE"/>
<stop offset="0.3365" stop-color="#52A7DE"/>
<stop offset="0.7813" stop-color="#3974B7"/>
<stop offset="1" stop-color="#3060A8"/>
</linearGradient>
<linearGradient id="paint2_linear_2545_6875" x1="4.9883" y1="266.586" x2="161.247" y2="266.586" gradientUnits="userSpaceOnUse">
<stop stop-color="#66D2FE"/>
<stop offset="0.3365" stop-color="#52A7DE"/>
<stop offset="0.7813" stop-color="#3974B7"/>
<stop offset="1" stop-color="#3060A8"/>
</linearGradient>
<linearGradient id="paint3_linear_2545_6875" x1="4.9883" y1="246.879" x2="161.247" y2="246.879" gradientUnits="userSpaceOnUse">
<stop stop-color="#66D2FE"/>
<stop offset="0.3365" stop-color="#52A7DE"/>
<stop offset="0.7813" stop-color="#3974B7"/>
<stop offset="1" stop-color="#3060A8"/>
</linearGradient>
<linearGradient id="paint4_linear_2545_6875" x1="167.826" y1="406.69" x2="324.085" y2="406.69" gradientUnits="userSpaceOnUse">
<stop stop-color="#66D2FE"/>
<stop offset="0.3365" stop-color="#52A7DE"/>
<stop offset="0.7813" stop-color="#3974B7"/>
<stop offset="1" stop-color="#3060A8"/>
</linearGradient>
<linearGradient id="paint5_linear_2545_6875" x1="328.746" y1="304.506" x2="485.004" y2="304.506" gradientUnits="userSpaceOnUse">
<stop stop-color="#66D2FE"/>
<stop offset="0.3365" stop-color="#52A7DE"/>
<stop offset="0.7813" stop-color="#3974B7"/>
<stop offset="1" stop-color="#3060A8"/>
</linearGradient>
<linearGradient id="paint6_linear_2545_6875" x1="328.742" y1="284.796" x2="485.001" y2="284.796" gradientUnits="userSpaceOnUse">
<stop stop-color="#66D2FE"/>
<stop offset="0.3365" stop-color="#52A7DE"/>
<stop offset="0.7813" stop-color="#3974B7"/>
<stop offset="1" stop-color="#3060A8"/>
</linearGradient>
<linearGradient id="paint7_linear_2545_6875" x1="328.742" y1="265.088" x2="485.001" y2="265.088" gradientUnits="userSpaceOnUse">
<stop stop-color="#66D2FE"/>
<stop offset="0.3365" stop-color="#52A7DE"/>
<stop offset="0.7813" stop-color="#3974B7"/>
<stop offset="1" stop-color="#3060A8"/>
</linearGradient>
<linearGradient id="paint8_linear_2545_6875" x1="328.742" y1="265.088" x2="485.001" y2="265.088" gradientUnits="userSpaceOnUse">
<stop stop-color="#66D2FE"/>
<stop offset="0.3365" stop-color="#52A7DE"/>
<stop offset="0.7813" stop-color="#3974B7"/>
<stop offset="1" stop-color="#3060A8"/>
</linearGradient>
<linearGradient id="paint9_linear_2545_6875" x1="391.34" y1="238.806" x2="422.402" y2="238.806" gradientUnits="userSpaceOnUse">
<stop stop-color="#FF5A72"/>
<stop offset="0.1515" stop-color="#FF6971"/>
<stop offset="0.7206" stop-color="#FF9C6E"/>
<stop offset="1" stop-color="#FFB06D"/>
</linearGradient>
<linearGradient id="paint10_linear_2545_6875" x1="167.826" y1="210.097" x2="324.085" y2="210.097" gradientUnits="userSpaceOnUse">
<stop stop-color="#66D2FE"/>
<stop offset="0.3365" stop-color="#52A7DE"/>
<stop offset="0.7813" stop-color="#3974B7"/>
<stop offset="1" stop-color="#3060A8"/>
</linearGradient>
<linearGradient id="paint11_linear_2545_6875" x1="167.822" y1="190.388" x2="324.081" y2="190.388" gradientUnits="userSpaceOnUse">
<stop stop-color="#66D2FE"/>
<stop offset="0.3365" stop-color="#52A7DE"/>
<stop offset="0.7813" stop-color="#3974B7"/>
<stop offset="1" stop-color="#3060A8"/>
</linearGradient>
<linearGradient id="paint12_linear_2545_6875" x1="182.113" y1="222.779" x2="279.096" y2="303.294" gradientUnits="userSpaceOnUse">
<stop stop-color="#FFE62A"/>
<stop offset="1" stop-color="#F4617E"/>
</linearGradient>
<linearGradient id="paint13_linear_2545_6875" x1="179.313" y1="226.155" x2="276.296" y2="306.669" gradientUnits="userSpaceOnUse">
<stop stop-color="#FFE62A"/>
<stop offset="1" stop-color="#F4617E"/>
</linearGradient>
<linearGradient id="paint14_linear_2545_6875" x1="220.914" y1="213.288" x2="270.983" y2="213.288" gradientUnits="userSpaceOnUse">
<stop stop-color="#FF5A72"/>
<stop offset="0.1515" stop-color="#FF6971"/>
<stop offset="0.7206" stop-color="#FF9C6E"/>
<stop offset="1" stop-color="#FFB06D"/>
</linearGradient>
<linearGradient id="paint15_linear_2545_6875" x1="221.194" y1="156.906" x2="270.985" y2="156.906" gradientUnits="userSpaceOnUse">
<stop stop-color="#FF5A72"/>
<stop offset="0.1515" stop-color="#FF6971"/>
<stop offset="0.7206" stop-color="#FF9C6E"/>
<stop offset="1" stop-color="#FFB06D"/>
</linearGradient>
<linearGradient id="paint16_linear_2545_6875" x1="221.194" y1="145.848" x2="270.985" y2="145.848" gradientUnits="userSpaceOnUse">
<stop stop-color="#FF5A72"/>
<stop offset="0.1515" stop-color="#FF6971"/>
<stop offset="0.7206" stop-color="#FF9C6E"/>
<stop offset="1" stop-color="#FFB06D"/>
</linearGradient>
<linearGradient id="paint17_linear_2545_6875" x1="221.194" y1="14.7212" x2="270.985" y2="14.7212" gradientUnits="userSpaceOnUse">
<stop stop-color="#FF5A72"/>
<stop offset="0.1515" stop-color="#FF6971"/>
<stop offset="0.7206" stop-color="#FF9C6E"/>
<stop offset="1" stop-color="#FFB06D"/>
</linearGradient>
<linearGradient id="paint18_linear_2545_6875" x1="234.453" y1="41.6488" x2="257.733" y2="41.6488" gradientUnits="userSpaceOnUse">
<stop stop-color="#FF5A72"/>
<stop offset="0.1515" stop-color="#FF6971"/>
<stop offset="0.7206" stop-color="#FF9C6E"/>
<stop offset="1" stop-color="#FFB06D"/>
</linearGradient>
<linearGradient id="paint19_linear_2545_6875" x1="175.508" y1="82.202" x2="288.355" y2="150.52" gradientUnits="userSpaceOnUse">
<stop stop-color="#FFE62A"/>
<stop offset="1" stop-color="#F42C53"/>
</linearGradient>
<linearGradient id="paint20_linear_2545_6875" x1="178.631" y1="77.0409" x2="291.479" y2="145.36" gradientUnits="userSpaceOnUse">
<stop stop-color="#FFE62A"/>
<stop offset="1" stop-color="#F4617E"/>
</linearGradient>
<linearGradient id="paint21_linear_2545_6875" x1="172.175" y1="87.7019" x2="285.023" y2="156.02" gradientUnits="userSpaceOnUse">
<stop stop-color="#FFB82A"/>
<stop offset="1" stop-color="#F4617E"/>
</linearGradient>
<linearGradient id="paint22_linear_2545_6875" x1="276.008" y1="14.6727" x2="447.867" y2="118.717" gradientUnits="userSpaceOnUse">
<stop stop-color="#FFBC2A"/>
<stop offset="1" stop-color="#F4617E"/>
</linearGradient>
<linearGradient id="paint23_linear_2545_6875" x1="298.209" y1="13.8408" x2="411.056" y2="82.1589" gradientUnits="userSpaceOnUse">
<stop stop-color="#FFE62A"/>
<stop offset="1" stop-color="#F4617E"/>
</linearGradient>
<linearGradient id="paint24_linear_2545_6875" x1="282.43" y1="26.0773" x2="433.746" y2="117.685" gradientUnits="userSpaceOnUse">
<stop stop-color="#FFD12A"/>
<stop offset="1" stop-color="#F4617E"/>
</linearGradient>
<linearGradient id="paint25_linear_2545_6875" x1="215.16" y1="32.6465" x2="328.007" y2="100.965" gradientUnits="userSpaceOnUse">
<stop stop-color="#FFE62A"/>
<stop offset="1" stop-color="#F42C53"/>
</linearGradient>
<linearGradient id="paint26_linear_2545_6875" x1="218.283" y1="27.4844" x2="331.131" y2="95.8027" gradientUnits="userSpaceOnUse">
<stop stop-color="#FFE62A"/>
<stop offset="1" stop-color="#F4617E"/>
</linearGradient>
<linearGradient id="paint27_linear_2545_6875" x1="211.828" y1="38.1454" x2="324.675" y2="106.463" gradientUnits="userSpaceOnUse">
<stop stop-color="#FFB82A"/>
<stop offset="1" stop-color="#F4617E"/>
</linearGradient>
<linearGradient id="paint28_linear_2545_6875" x1="215.729" y1="78.3375" x2="328.577" y2="146.656" gradientUnits="userSpaceOnUse">
<stop stop-color="#FFBC2A"/>
<stop offset="1" stop-color="#F4617E"/>
</linearGradient>
<linearGradient id="paint29_linear_2545_6875" x1="218.854" y1="73.1756" x2="331.701" y2="141.494" gradientUnits="userSpaceOnUse">
<stop stop-color="#FFE62A"/>
<stop offset="1" stop-color="#F4617E"/>
</linearGradient>
<linearGradient id="paint30_linear_2545_6875" x1="212.397" y1="83.8364" x2="325.245" y2="152.155" gradientUnits="userSpaceOnUse">
<stop stop-color="#FFD12A"/>
<stop offset="1" stop-color="#F4617E"/>
</linearGradient>
<linearGradient id="paint31_linear_2545_6875" x1="199.835" y1="40.3215" x2="312.682" y2="108.64" gradientUnits="userSpaceOnUse">
<stop stop-color="#FFAD2A"/>
<stop offset="1" stop-color="#F4617E"/>
</linearGradient>
<linearGradient id="paint32_linear_2545_6875" x1="202.959" y1="35.1608" x2="315.807" y2="103.479" gradientUnits="userSpaceOnUse">
<stop stop-color="#FFE62A"/>
<stop offset="1" stop-color="#F4617E"/>
</linearGradient>
<linearGradient id="paint33_linear_2545_6875" x1="196.502" y1="45.8218" x2="309.35" y2="114.14" gradientUnits="userSpaceOnUse">
<stop stop-color="#FFCD2A"/>
<stop offset="1" stop-color="#F4617E"/>
</linearGradient>
<linearGradient id="paint34_linear_2545_6875" x1="312.4" y1="139.694" x2="477.362" y2="210.816" gradientUnits="userSpaceOnUse">
<stop stop-color="white"/>
<stop offset="0.2266" stop-color="#CAD6E9"/>
<stop offset="0.603" stop-color="#7897C6"/>
<stop offset="0.8698" stop-color="#446FB0"/>
<stop offset="1" stop-color="#3060A8"/>
</linearGradient>
<linearGradient id="paint35_linear_2545_6875" x1="322.035" y1="151.555" x2="396.999" y2="151.555" gradientUnits="userSpaceOnUse">
<stop stop-color="#FFE62A"/>
<stop offset="1" stop-color="#F42C53"/>
</linearGradient>
<linearGradient id="paint36_linear_2545_6875" x1="68.617" y1="107.056" x2="246.733" y2="221.734" gradientUnits="userSpaceOnUse">
<stop stop-color="white"/>
<stop offset="0.2266" stop-color="#CAD6E9"/>
<stop offset="0.603" stop-color="#7897C6"/>
<stop offset="0.8698" stop-color="#446FB0"/>
<stop offset="1" stop-color="#3060A8"/>
</linearGradient>
<linearGradient id="paint37_linear_2545_6875" x1="92.9781" y1="153.049" x2="166.299" y2="153.049" gradientUnits="userSpaceOnUse">
<stop stop-color="#FF5A72"/>
<stop offset="0.2266" stop-color="#CA5C80"/>
<stop offset="0.603" stop-color="#785E95"/>
<stop offset="0.8698" stop-color="#445FA3"/>
<stop offset="1" stop-color="#3060A8"/>
</linearGradient>
<linearGradient id="paint38_linear_2545_6875" x1="92.9757" y1="137.104" x2="166.297" y2="137.104" gradientUnits="userSpaceOnUse">
<stop stop-color="#02007D"/>
<stop offset="0.2291" stop-color="#0E1988"/>
<stop offset="0.7461" stop-color="#264C9F"/>
<stop offset="1" stop-color="#3060A8"/>
</linearGradient>
<linearGradient id="paint39_linear_2545_6875" x1="341.434" y1="236.548" x2="397.744" y2="236.548" gradientUnits="userSpaceOnUse">
<stop stop-color="#66D2FE"/>
<stop offset="0.4283" stop-color="#4792C3"/>
<stop offset="0.8125" stop-color="#2F5E94"/>
<stop offset="1" stop-color="#254A82"/>
</linearGradient>
<linearGradient id="paint40_linear_2545_6875" x1="352.628" y1="218.347" x2="425.827" y2="264.706" gradientUnits="userSpaceOnUse">
<stop stop-color="white"/>
<stop offset="0.2266" stop-color="#CAD6E9"/>
<stop offset="0.603" stop-color="#7897C6"/>
<stop offset="0.8698" stop-color="#446FB0"/>
<stop offset="1" stop-color="#3060A8"/>
</linearGradient>
<linearGradient id="paint41_linear_2545_6875" x1="256.397" y1="356.298" x2="369.244" y2="424.616" gradientUnits="userSpaceOnUse">
<stop stop-color="#FFBC2A"/>
<stop offset="1" stop-color="#F4617E"/>
</linearGradient>
<linearGradient id="paint42_linear_2545_6875" x1="259.514" y1="351.136" x2="372.361" y2="419.454" gradientUnits="userSpaceOnUse">
<stop stop-color="#FFE62A"/>
<stop offset="1" stop-color="#F4617E"/>
</linearGradient>
<linearGradient id="paint43_linear_2545_6875" x1="253.058" y1="361.797" x2="365.905" y2="430.115" gradientUnits="userSpaceOnUse">
<stop stop-color="#FFD12A"/>
<stop offset="1" stop-color="#F4617E"/>
</linearGradient>
<linearGradient id="paint44_linear_2545_6875" x1="176.445" y1="355.503" x2="289.292" y2="423.821" gradientUnits="userSpaceOnUse">
<stop stop-color="#FFE62A"/>
<stop offset="1" stop-color="#F42C53"/>
</linearGradient>
<linearGradient id="paint45_linear_2545_6875" x1="179.569" y1="350.341" x2="292.417" y2="418.659" gradientUnits="userSpaceOnUse">
<stop stop-color="#FFE62A"/>
<stop offset="1" stop-color="#F4617E"/>
</linearGradient>
<linearGradient id="paint46_linear_2545_6875" x1="173.112" y1="361.002" x2="285.96" y2="429.32" gradientUnits="userSpaceOnUse">
<stop stop-color="#FFB82A"/>
<stop offset="1" stop-color="#F4617E"/>
</linearGradient>
<linearGradient id="paint47_linear_2545_6875" x1="200.773" y1="313.623" x2="313.62" y2="381.941" gradientUnits="userSpaceOnUse">
<stop stop-color="#FFAD2A"/>
<stop offset="1" stop-color="#F4617E"/>
</linearGradient>
<linearGradient id="paint48_linear_2545_6875" x1="203.896" y1="308.461" x2="316.744" y2="376.779" gradientUnits="userSpaceOnUse">
<stop stop-color="#FFE62A"/>
<stop offset="1" stop-color="#F4617E"/>
</linearGradient>
<linearGradient id="paint49_linear_2545_6875" x1="197.441" y1="319.121" x2="310.288" y2="387.439" gradientUnits="userSpaceOnUse">
<stop stop-color="#FFB82A"/>
<stop offset="1" stop-color="#F4617E"/>
</linearGradient>
</defs>
</svg>
