<svg width="110" height="110" viewBox="0 0 110 110" fill="none" xmlns="http://www.w3.org/2000/svg">
<g filter="url(#filter0_i_3103_8261)">
<circle cx="55" cy="55" r="55" fill="url(#paint0_linear_3103_8261)"/>
</g>
<circle cx="55" cy="55" r="53" stroke="#FBFBFB" stroke-width="4"/>
<path d="M55 33.2568C54.0489 33.2568 53.107 33.4442 52.2283 33.8082C51.3496 34.1721 50.5512 34.7056 49.8786 35.3782C49.2061 36.0507 48.6726 36.8492 48.3086 37.7279C47.9446 38.6066 47.7572 39.5485 47.7572 40.4996C47.7572 41.4507 47.9446 42.3925 48.3086 43.2713C48.6726 44.15 49.2061 44.9484 49.8786 45.621C50.5512 46.2935 51.3496 46.827 52.2283 47.191C53.107 47.555 54.0489 47.7423 55 47.7423C56.9209 47.7423 58.7631 46.9793 60.1214 45.621C61.4797 44.2627 62.2428 42.4205 62.2428 40.4996C62.2428 38.5787 61.4797 36.7365 60.1214 35.3782C58.7631 34.0199 56.9209 33.2568 55 33.2568ZM71.3125 36.8746C69.8704 36.8746 68.4873 37.4475 67.4676 38.4672C66.4479 39.4869 65.875 40.87 65.875 42.3121C65.875 43.7542 66.4479 45.1372 67.4676 46.157C68.4873 47.1767 69.8704 47.7496 71.3125 47.7496C72.7546 47.7496 74.1377 47.1767 75.1574 46.157C76.1771 45.1372 76.75 43.7542 76.75 42.3121C76.75 40.87 76.1771 39.4869 75.1574 38.4672C74.1377 37.4475 72.7546 36.8746 71.3125 36.8746ZM38.6875 36.8746C37.2454 36.8746 35.8623 37.4475 34.8426 38.4672C33.8229 39.4869 33.25 40.87 33.25 42.3121C33.25 43.7542 33.8229 45.1372 34.8426 46.157C35.8623 47.1767 37.2454 47.7496 38.6875 47.7496C40.1296 47.7496 41.5127 47.1767 42.5324 46.157C43.5521 45.1372 44.125 43.7542 44.125 42.3121C44.125 40.87 43.5521 39.4869 42.5324 38.4672C41.5127 37.4475 40.1296 36.8746 38.6875 36.8746ZM44.125 54.9742C44.1317 54.0172 44.5166 53.1017 45.1957 52.4273C45.8748 51.753 46.793 51.3746 47.75 51.3746H62.25C63.2114 51.3746 64.1334 51.7565 64.8133 52.4363C65.4931 53.1161 65.875 54.0382 65.875 54.9996V65.8746C65.8748 67.0154 65.6962 68.1493 65.3457 69.235C64.5431 71.6953 62.8896 73.7888 60.6822 75.1397C58.4749 76.4906 55.8582 77.0103 53.3022 76.6056C50.7461 76.2008 48.418 74.8981 46.736 72.9313C45.054 70.9645 44.1283 68.4625 44.125 65.8746V54.9742ZM40.5 54.9996C40.5 53.6765 40.8516 52.4403 41.4715 51.3746H33.25C32.2886 51.3746 31.3666 51.7565 30.6867 52.4363C30.0069 53.1161 29.625 54.0382 29.625 54.9996V64.0621C29.6245 65.5458 29.9883 67.007 30.6845 68.3172C31.3807 69.6275 32.3879 70.7468 33.6177 71.5768C34.8476 72.4069 36.2624 72.9223 37.738 73.0777C39.2135 73.2332 40.7047 73.024 42.0805 72.4685C41.0371 70.426 40.4954 68.1644 40.5 65.871V54.9996ZM69.5 54.9996V65.8746C69.5 68.249 68.9309 70.4892 67.9195 72.4685C69.2953 73.024 70.7865 73.2332 72.262 73.0777C73.7376 72.9223 75.1524 72.4069 76.3823 71.5768C77.6121 70.7468 78.6193 69.6275 79.3155 68.3172C80.0117 67.007 80.3755 65.5458 80.375 64.0621V54.9996C80.375 54.0382 79.9931 53.1161 79.3133 52.4363C78.6334 51.7565 77.7114 51.3746 76.75 51.3746H68.5285C69.1448 52.4403 69.5 53.6765 69.5 54.9996Z" fill="white"/>
<defs>
<filter id="filter0_i_3103_8261" x="0" y="0" width="115" height="115" filterUnits="userSpaceOnUse" color-interpolation-filters="sRGB">
<feFlood flood-opacity="0" result="BackgroundImageFix"/>
<feBlend mode="normal" in="SourceGraphic" in2="BackgroundImageFix" result="shape"/>
<feColorMatrix in="SourceAlpha" type="matrix" values="0 0 0 0 0 0 0 0 0 0 0 0 0 0 0 0 0 0 127 0" result="hardAlpha"/>
<feOffset dx="5" dy="5"/>
<feGaussianBlur stdDeviation="3.5"/>
<feComposite in2="hardAlpha" operator="arithmetic" k2="-1" k3="1"/>
<feColorMatrix type="matrix" values="0 0 0 0 0 0 0 0 0 0 0 0 0 0 0 0 0 0 0.15 0"/>
<feBlend mode="normal" in2="shape" result="effect1_innerShadow_3103_8261"/>
</filter>
<linearGradient id="paint0_linear_3103_8261" x1="4.5" y1="5.5" x2="92.5" y2="110" gradientUnits="userSpaceOnUse">
<stop stop-color="#27A9E1" stop-opacity="0.66"/>
<stop offset="1" stop-color="#8ADBFE"/>
</linearGradient>
</defs>
</svg>
