<svg width="74" height="74" viewBox="0 0 74 74" fill="none" xmlns="http://www.w3.org/2000/svg">
<circle cx="37" cy="37" r="37" fill="url(#paint0_radial_2604_6862)"/>
<circle cx="37" cy="37" r="22" fill="#27A9E1"/>
<path d="M29.7939 30.0666C28.0638 31.8643 27 34.308 27 37C27 42.5229 31.4771 47 37 47C38.351 47 39.6395 46.7321 40.8151 46.2465C40.9589 45.3084 40.6435 44.4083 40.5145 44.0933C40.2275 43.3938 39.2801 42.1978 37.6986 40.5385C37.2765 40.0948 37.3036 39.7544 37.4545 38.7429L37.4719 38.6286C37.5744 37.9358 37.7464 37.5261 40.0778 37.156C41.2621 36.9682 41.5736 37.4416 42.0054 38.0971C42.0531 38.1698 42.1009 38.241 42.1497 38.3124C42.5599 38.9121 42.8638 39.0493 43.3228 39.258C43.5284 39.3513 43.785 39.4689 44.1289 39.6643C44.9439 40.13 44.9439 40.6559 44.9439 41.809V41.9398C44.9439 42.4293 44.896 42.859 44.8207 43.2324C46.1847 41.5231 47 39.3568 47 37C47 32.8761 44.5037 29.3353 40.9399 27.806C40.2484 28.2727 39.2997 28.9341 38.9688 29.3875C38.7995 29.6192 38.5603 30.8021 37.7821 30.8997C37.5782 30.9253 37.3048 30.9074 37.015 30.8887C36.2381 30.8382 35.1752 30.7701 34.835 31.6937C34.619 32.279 34.581 33.8681 35.2799 34.6929C35.3918 34.8246 35.4134 35.0684 35.3374 35.3419C35.2375 35.701 35.0357 35.9195 34.9729 35.9646C34.8524 35.8954 34.612 35.6164 34.4492 35.4265C34.0569 34.9706 33.5676 34.4029 32.935 34.2272C32.7049 34.1635 32.4521 34.1108 32.2068 34.0592C31.5205 33.9153 30.743 33.7517 30.5624 33.3663C30.4305 33.084 30.4311 32.6953 30.4316 32.2846C30.4316 31.764 30.4316 31.1754 30.1766 30.6032C30.0781 30.3818 29.9461 30.2056 29.7939 30.0666ZM37 49.5C30.0964 49.5 24.5 43.9035 24.5 37C24.5 30.0964 30.0964 24.5 37 24.5C43.9035 24.5 49.5 30.0964 49.5 37C49.5 43.9035 43.9035 49.5 37 49.5Z" fill="white"/>
<defs>
<radialGradient id="paint0_radial_2604_6862" cx="0" cy="0" r="1" gradientUnits="userSpaceOnUse" gradientTransform="translate(37 37) rotate(90) scale(37)">
<stop stop-color="#FFFDFD"/>
<stop offset="1" stop-color="#F3F3F3"/>
</radialGradient>
</defs>
</svg>
